<?xml version="1.0" standalone="no"?>
<!DOCTYPE svg PUBLIC "-//W3C//DTD SVG 20010904//EN"
 "http://www.w3.org/TR/2001/REC-SVG-20010904/DTD/svg10.dtd">
<svg version="1.0" xmlns="http://www.w3.org/2000/svg"
 width="1672.000000pt" height="1672.000000pt" viewBox="0 0 1672.000000 1672.000000"
 preserveAspectRatio="xMidYMid meet">
<metadata>
Created by potrace 1.11, written by Peter Selinger 2001-2013
</metadata>
<g transform="translate(0.000000,1672.000000) scale(0.100000,-0.100000)"
fill="#000000" stroke="none">
<path d="M7887 16714 c-1 -1 -74 -4 -162 -8 -88 -4 -178 -8 -200 -11 -22 -2
-80 -7 -130 -11 -49 -4 -92 -8 -95 -9 -3 -1 -41 -5 -85 -9 -44 -4 -91 -9 -105
-11 -14 -2 -47 -6 -75 -10 -27 -3 -61 -8 -75 -10 -14 -2 -61 -9 -105 -15 -44
-7 -89 -14 -100 -16 -11 -3 -36 -7 -55 -10 -19 -2 -46 -7 -60 -10 -14 -2 -38
-7 -55 -10 -16 -2 -37 -7 -45 -9 -8 -2 -31 -7 -50 -10 -85 -14 -298 -63 -520
-120 -95 -24 -357 -103 -415 -125 -27 -10 -113 -42 -190 -70 -488 -182 -1033
-480 -1400 -766 -628 -488 -1112 -1167 -1343 -1884 -37 -114 -73 -238 -86
-301 -3 -13 -12 -55 -21 -92 -14 -66 -19 -91 -30 -152 -3 -16 -10 -52 -15 -80
-5 -27 -12 -72 -16 -100 -3 -27 -7 -61 -9 -75 -2 -14 -7 -56 -11 -95 -3 -38
-8 -81 -10 -95 -23 -170 -23 -858 0 -1035 3 -16 7 -63 11 -104 4 -41 9 -84 11
-95 2 -12 6 -41 9 -66 3 -25 7 -56 10 -70 2 -14 6 -41 9 -60 25 -174 104 -480
176 -690 121 -346 386 -829 617 -1120 154 -195 202 -249 368 -415 187 -188
388 -361 641 -551 72 -55 140 -105 150 -112 11 -7 60 -41 109 -75 233 -162
488 -314 850 -508 55 -29 136 -72 180 -96 108 -58 808 -408 915 -457 91 -43
211 -98 379 -178 58 -27 151 -70 206 -96 295 -138 1070 -532 1220 -619 91 -54
331 -209 345 -223 3 -3 41 -32 85 -65 186 -138 385 -330 497 -478 139 -186
239 -426 263 -636 3 -25 8 -57 11 -71 6 -31 6 -296 -1 -330 -3 -14 -7 -47 -10
-75 -4 -27 -11 -68 -17 -90 -5 -22 -12 -47 -13 -55 -17 -76 -89 -232 -151
-326 -103 -154 -317 -335 -534 -452 -81 -43 -258 -121 -289 -127 -11 -2 -28
-8 -38 -13 -53 -27 -450 -119 -593 -138 -206 -26 -355 -36 -535 -35 -192 1
-450 18 -555 36 -14 3 -43 7 -65 11 -34 5 -247 47 -295 59 -48 12 -218 68
-297 98 -102 40 -440 204 -461 224 -7 7 -17 13 -22 13 -14 0 -205 118 -335
207 -100 68 -177 127 -425 326 -145 116 -449 344 -586 440 -141 98 -360 195
-483 213 -20 3 -45 8 -56 11 -43 13 -281 19 -335 9 -14 -3 -41 -7 -60 -10
-118 -18 -260 -73 -385 -150 -109 -66 -156 -105 -293 -243 -200 -202 -378
-470 -484 -728 -36 -87 -41 -99 -43 -105 -1 -3 -15 -48 -32 -100 -71 -218 -93
-355 -88 -565 2 -82 5 -163 8 -180 52 -295 158 -534 343 -780 87 -115 107
-138 249 -280 151 -152 182 -179 335 -299 393 -309 953 -616 1495 -818 192
-72 241 -90 260 -94 11 -2 29 -8 40 -13 21 -11 184 -63 325 -105 95 -27 433
-113 483 -121 18 -3 48 -10 67 -15 19 -5 49 -11 65 -14 34 -6 188 -34 225 -41
13 -2 42 -7 65 -10 22 -3 65 -10 95 -15 30 -5 78 -12 105 -15 52 -6 88 -11
153 -20 20 -3 64 -8 97 -11 33 -3 80 -7 105 -9 295 -29 528 -39 880 -39 238 0
476 8 615 19 118 10 202 17 230 20 17 2 57 6 90 9 33 4 71 8 85 11 14 2 48 7
75 10 28 3 75 10 105 15 30 5 71 11 90 14 19 3 98 17 175 31 77 15 151 29 165
31 154 28 535 135 766 215 259 90 657 266 849 377 28 16 66 38 85 49 160 91
488 314 550 374 8 8 40 34 70 58 92 72 189 160 315 286 505 507 848 1058 1065
1715 60 183 131 458 155 602 3 18 10 56 15 83 5 28 12 68 15 90 3 22 10 69 15
105 12 85 18 135 34 310 25 258 25 845 2 1085 -25 252 -26 256 -32 300 -16
115 -26 179 -28 190 -2 6 -6 30 -10 55 -4 25 -9 52 -10 60 -12 66 -20 102 -32
150 -7 30 -15 69 -18 85 -10 55 -84 308 -127 430 -149 427 -411 907 -693 1270
-198 255 -443 504 -766 775 -284 239 -692 526 -994 700 -163 94 -313 178 -389
219 -51 27 -139 75 -197 106 -226 121 -757 376 -983 471 -98 41 -487 213 -565
250 -40 19 -75 34 -78 34 -3 0 -48 20 -101 45 -52 25 -97 45 -98 45 -2 0 -45
20 -97 44 -51 24 -120 56 -153 71 -401 183 -716 347 -877 456 -31 22 -59 39
-62 39 -3 0 -14 7 -23 14 -10 8 -54 40 -98 72 -449 318 -636 618 -637 1024 -1
229 55 410 190 614 154 233 412 410 810 555 45 17 93 33 105 35 12 3 56 14 97
26 81 22 333 68 415 76 28 3 64 7 80 9 201 27 958 27 1126 0 13 -2 53 -6 89
-10 36 -3 74 -8 85 -10 11 -2 42 -7 70 -10 115 -14 310 -58 445 -100 229 -71
719 -296 960 -439 154 -92 346 -182 430 -201 182 -42 223 -48 365 -49 178 -1
246 6 358 39 216 62 378 176 540 378 193 242 321 492 412 807 51 179 55 192
59 220 2 14 9 47 15 74 18 77 33 217 34 311 0 58 -13 237 -18 246 -2 3 -7 21
-10 40 -44 256 -229 558 -442 720 -32 24 -65 50 -73 58 -20 19 -220 151 -290
190 -235 135 -539 262 -820 346 -238 70 -658 168 -900 209 -14 2 -41 7 -60 10
-68 12 -96 16 -140 22 -25 3 -52 7 -60 10 -8 2 -38 6 -65 9 -28 3 -63 7 -80
10 -16 2 -55 7 -85 10 -30 3 -66 7 -80 10 -14 2 -61 7 -105 10 -44 4 -91 8
-105 10 -14 2 -65 7 -115 11 -49 3 -106 8 -125 9 -19 2 -87 6 -150 10 -63 4
-131 9 -150 11 -117 11 -812 27 -823 18z"/>
<path d="M13658 1915 c-2 -2 -26 -7 -53 -10 -68 -9 -186 -50 -266 -91 -232
-120 -410 -343 -481 -602 -31 -112 -31 -364 0 -474 87 -317 316 -559 624 -662
106 -36 147 -41 303 -40 111 0 157 5 225 23 357 94 625 381 694 744 17 86 14
300 -4 372 -36 145 -96 272 -176 376 -125 162 -335 299 -529 344 -16 4 -39 9
-50 12 -25 6 -281 13 -287 8z"/>
</g>
</svg>
