<svg xmlns="http://www.w3.org/2000/svg" xmlns:xlink="http://www.w3.org/1999/xlink" viewBox="0 0 500 500"><defs><style>.cls-1,.cls-7{fill:none;}.cls-2{fill:#a756cc;}.cls-3{clip-path:url(#clip-path);}.cls-4{clip-path:url(#clip-path-2);}.cls-5{fill:#d6b82b;}.cls-6{fill:#ffdb33;}.cls-7{stroke:#000;stroke-miterlimit:10;stroke-width:13px;}.cls-8{clip-path:url(#clip-path-3);}.cls-9{fill:#d3bbaf;}.cls-10{fill:#ffe1d2;}.cls-11{fill:#e94e1b;}.cls-12{clip-path:url(#clip-path-4);}.cls-13{clip-path:url(#clip-path-5);}.cls-14{fill:#1d71b8;}.cls-15{fill:#36a9e1;}</style><clipPath id="clip-path"><circle id="Circle_Clipping_Mask" data-name="Circle Clipping Mask" class="cls-1" cx="250" cy="258.78" r="193.56"/></clipPath><clipPath id="clip-path-2"><path id="Body_Clipping_Mask" data-name="Body Clipping Mask" class="cls-1" d="M127.11,704.08c.29-1.77,1-150,11.64-251.41,2.84-27.11,23.7-112.71,116-112.71,100.91,0,115.4,91.57,116.91,109.75,8.3,99.55,10.82,254.48,10.81,254.37Z"/></clipPath><clipPath id="clip-path-3"><circle id="Head_Clipping_Mask" data-name="Head Clipping Mask" class="cls-1" cx="250" cy="249.14" r="122.67"/></clipPath><clipPath id="clip-path-4"><circle id="Circle_Clipping_Mask-2" data-name="Circle Clipping Mask" class="cls-1" cx="250" cy="-261.22" r="193.56"/></clipPath><clipPath id="clip-path-5"><path id="Body_Clipping_Mask-2" data-name="Body Clipping Mask" class="cls-1" d="M127.11,184.08c.29-1.77,1-150,11.64-251.41,2.84-27.11,23.7-112.71,116-112.71,100.91,0,115.4,91.57,116.91,109.75,8.3,99.55,10.82,254.48,10.81,254.37Z"/></clipPath></defs><g id="Party"><circle id="Background_Colour" data-name="Background Colour" class="cls-2" cx="250.11" cy="260.72" r="193.56"/><g id="Body"><g id="Background_Clip" data-name="Background Clip"><g class="cls-3"><g id="Body_Clip" data-name="Body Clip"><g class="cls-4"><path id="Dark" class="cls-5" d="M127.11,704.08c.29-1.77,1-150,11.64-251.41,2.84-27.11,23.7-112.71,116-112.71,100.91,0,115.4,91.57,116.91,109.75,8.3,99.55,10.82,254.48,10.81,254.37Z"/><path id="Light" class="cls-6" d="M149.11,704.08c.29-1.77,1-150,11.64-251.41,2.84-27.11,23.7-112.71,116-112.71,100.91,0,115.4,91.57,116.91,109.75,8.3,99.55,10.82,254.48,10.81,254.37Z"/></g></g><g id="Body_Outline" data-name="Body Outline"><path d="M133.61,704.08c.58-4.77.19-9.84.26-14.63q.3-18.57.7-37.13c.85-37.66,2.12-75.31,4.14-112.92,1.1-20.48,2.42-40.94,4.15-61.37.74-8.75,1.52-17.51,2.48-26.24,0-.42.39-2.91.14-1.14.12-.88.25-1.75.39-2.63.34-2.07.72-4.12,1.14-6.17,4.53-21.89,13.54-43.62,28.17-60.72,21.25-24.82,51.7-35.46,83.91-34.61,30.43.81,59.25,11.93,79,35.61,13.25,15.88,21.14,35.41,25.21,55.51.33,1.63.63,3.26.9,4.9.12.69.22,1.39.33,2.08.37,2.32,0-.5.17,1.17.59,5,.92,10,1.3,15,1.45,19,2.6,38.05,3.61,57.1,3.23,60.91,5.16,121.91,6.25,182.9,0,1.09.05,2.18.06,3.27l6.5-6.5H127.11c-8.36,0-8.38,13,0,13H382.44a6.59,6.59,0,0,0,6.5-6.5c-.41-54.47-2.63-109-5.18-163.43-1-20.49-2.06-41-3.43-61.44-.84-12.67-1.36-25.47-3.24-38a143,143,0,0,0-20.79-56.06A110.73,110.73,0,0,0,286,336.66c-34.28-7.32-73.1-3-101.76,18.33-21.88,16.3-36.54,39.91-45,65.58-8.59,26-9.3,54-11.21,81.05-4.65,66-6.22,132.11-7.33,198.22a40,40,0,0,1-.1,4.24c-.43,3.51,3.29,6.47,6.5,6.5C131,710.62,133.19,707.55,133.61,704.08Z"/></g></g></g></g><circle id="Background_Outline" data-name="Background Outline" class="cls-7" cx="250" cy="258.78" r="193.56"/><g id="Head"><g id="Head_Clip" data-name="Head Clip"><g class="cls-8"><circle id="Shadow" class="cls-9" cx="250" cy="249.14" r="122.67"/><circle id="Light-2" data-name="Light" class="cls-10" cx="285.72" cy="224.28" r="151.87"/><path d="M222.56,275.52c22,13.55,45.11,13.78,66-.67,0,0-6.89,54.08-32.23,54.08C233.89,328.93,222.56,275.52,222.56,275.52Z"/><path d="M204.72,202.56l.58,28.58c.17,8.35,13.17,8.38,13,0l-.58-28.58c-.17-8.35-13.17-8.38-13,0Z"/><path d="M282.75,201.66l.6,29.48c.17,8.35,13.17,8.38,13,0l-.6-29.48c-.17-8.36-13.18-8.39-13,0Z"/></g></g><circle id="Head_Outline" data-name="Head Outline" class="cls-7" cx="250" cy="249.14" r="122.67"/></g><g id="hat"><path class="cls-6" d="M220.78,127.45l29.48,10.35a339.88,339.88,0,0,0,54.16,14.13l28.32,4.94S326.19,21.13,311.35,15.55C299.56,11.11,220.78,127.45,220.78,127.45Z"/><path class="cls-11" d="M249.28,92.15s43.83,17.75,78.48,16.28l1.44,15.23s-45.87,1.78-88.06-19.51Z"/><path class="cls-11" d="M273.22,53.22a189.16,189.16,0,0,0,51.75,12l1.89,15.87s-36.3,0-61.78-15.87Z"/><path class="cls-7" d="M220.78,127.45l29.48,10.35a339.88,339.88,0,0,0,54.16,14.13l28.32,4.94S326.19,21.13,311.35,15.55C299.56,11.11,220.78,127.45,220.78,127.45Z"/></g></g><g id="Mask"><g id="Body-2" data-name="Body"><g id="Background_Clip-2" data-name="Background Clip"><g class="cls-12"><g id="Body_Clip-2" data-name="Body Clip"><g class="cls-13"><path id="Dark-2" data-name="Dark" class="cls-14" d="M127.11,184.08c.29-1.77,1-150,11.64-251.41,2.84-27.11,23.7-112.71,116-112.71,100.91,0,115.4,91.57,116.91,109.75,8.3,99.55,10.82,254.48,10.81,254.37Z"/><path id="Light-3" data-name="Light" class="cls-15" d="M149.11,184.08c.29-1.77,1-150,11.64-251.41,2.84-27.11,23.7-112.71,116-112.71,100.91,0,115.4,91.57,116.91,109.75,8.3,99.55,10.82,254.48,10.81,254.37Z"/></g></g><g id="Body_Outline-2" data-name="Body Outline"><path d="M133.61,184.08c.58-4.77.19-9.84.26-14.63q.3-18.57.7-37.13c.85-37.66,2.12-75.31,4.14-112.92,1.1-20.48,2.42-40.94,4.15-61.37.74-8.75,1.52-17.51,2.48-26.24,0-.42.39-2.91.14-1.14.12-.88.25-1.75.39-2.63.34-2.07.72-4.12,1.14-6.17,4.53-21.89,13.54-43.62,28.17-60.72,21.25-24.82,51.7-35.46,83.91-34.61,30.43.81,59.25,11.93,79,35.61,13.25,15.88,21.14,35.41,25.21,55.51.33,1.63.63,3.26.9,4.9.12.69.22,1.39.33,2.08.37,2.32,0-.5.17,1.17.59,5,.92,10,1.3,15,1.45,19,2.6,38.05,3.61,57.1,3.23,60.91,5.16,121.91,6.25,182.9,0,1.09.05,2.18.06,3.27l6.5-6.5H127.11c-8.36,0-8.38,13,0,13H382.44a6.59,6.59,0,0,0,6.5-6.5c-.41-54.47-2.63-109-5.18-163.43-1-20.49-2.06-41-3.43-61.44-.84-12.67-1.36-25.47-3.24-38a143,143,0,0,0-20.79-56.06A110.73,110.73,0,0,0,286-183.34c-34.28-7.32-73.1-3-101.76,18.33-21.88,16.3-36.54,39.91-45,65.58-8.59,26-9.3,54-11.21,81.05-4.65,66-6.22,132.11-7.33,198.22a40,40,0,0,1-.1,4.24c-.43,3.51,3.29,6.47,6.5,6.5C131,190.62,133.19,187.55,133.61,184.08Z"/></g></g></g></g></g></svg>