<svg xmlns="http://www.w3.org/2000/svg" xmlns:xlink="http://www.w3.org/1999/xlink" viewBox="0 0 500 500"><defs><style>.cls-1,.cls-7{fill:none;}.cls-2{fill:#a756cc;}.cls-3{clip-path:url(#clip-path);}.cls-4{clip-path:url(#clip-path-2);}.cls-5{fill:#1d71b8;}.cls-6{fill:#36a9e1;}.cls-7{stroke:#000;stroke-miterlimit:10;stroke-width:13px;}.cls-8{clip-path:url(#clip-path-3);}.cls-9{fill:#33210e;}.cls-10{fill:#683c11;}.cls-11{fill:#ceefff;}.cls-12{fill:#9fbdc9;}</style><clipPath id="clip-path"><circle id="Circle_Clipping_Mask" data-name="Circle Clipping Mask" class="cls-1" cx="250" cy="258.78" r="193.56"/></clipPath><clipPath id="clip-path-2"><path id="Body_Clipping_Mask" data-name="Body Clipping Mask" class="cls-1" d="M127.11,704.08c.29-1.77,1-150,11.64-251.41,2.84-27.11,23.7-112.71,116-112.71,100.91,0,115.4,91.57,116.91,109.75,8.3,99.55,10.82,254.48,10.81,254.37Z"/></clipPath><clipPath id="clip-path-3"><circle id="Head_Clipping_Mask" data-name="Head Clipping Mask" class="cls-1" cx="250" cy="250" r="122.67"/></clipPath></defs><g id="Mask"><circle id="Background_Colour" data-name="Background Colour" class="cls-2" cx="250" cy="258.78" r="193.56"/><g id="Body"><g id="Background_Clip" data-name="Background Clip"><g class="cls-3"><g id="Body_Clip" data-name="Body Clip"><g class="cls-4"><path id="Dark" class="cls-5" d="M127.11,704.08c.29-1.77,1-150,11.64-251.41,2.84-27.11,23.7-112.71,116-112.71,100.91,0,115.4,91.57,116.91,109.75,8.3,99.55,10.82,254.48,10.81,254.37Z"/><path id="Light" class="cls-6" d="M149.11,704.08c.29-1.77,1-150,11.64-251.41,2.84-27.11,23.7-112.71,116-112.71,100.91,0,115.4,91.57,116.91,109.75,8.3,99.55,10.82,254.48,10.81,254.37Z"/></g></g><g id="Body_Outline" data-name="Body Outline"><path d="M133.61,704.08c.58-4.77.19-9.84.26-14.63q.3-18.57.7-37.13c.85-37.66,2.12-75.31,4.14-112.92,1.1-20.48,2.42-40.94,4.15-61.37.74-8.75,1.52-17.51,2.48-26.24,0-.42.39-2.91.14-1.14.12-.88.25-1.75.39-2.63.34-2.07.72-4.12,1.14-6.17,4.53-21.89,13.54-43.62,28.17-60.72,21.25-24.82,51.7-35.46,83.91-34.61,30.43.81,59.25,11.93,79,35.61,13.25,15.88,21.14,35.41,25.21,55.51.33,1.63.63,3.26.9,4.9.12.69.22,1.39.33,2.08.37,2.32,0-.5.17,1.17.59,5,.92,10,1.3,15,1.45,19,2.6,38.05,3.61,57.1,3.23,60.91,5.16,121.91,6.25,182.9,0,1.09.05,2.18.06,3.27l6.5-6.5H127.11c-8.36,0-8.38,13,0,13H382.44a6.59,6.59,0,0,0,6.5-6.5c-.41-54.47-2.63-109-5.18-163.43-1-20.49-2.06-41-3.43-61.44-.84-12.67-1.36-25.47-3.24-38a143,143,0,0,0-20.79-56.06A110.73,110.73,0,0,0,286,336.66c-34.28-7.32-73.1-3-101.76,18.33-21.88,16.3-36.54,39.91-45,65.58-8.59,26-9.3,54-11.21,81.05-4.65,66-6.22,132.11-7.33,198.22a40,40,0,0,1-.1,4.24c-.43,3.51,3.29,6.47,6.5,6.5C131,710.62,133.19,707.55,133.61,704.08Z"/></g></g></g></g><circle id="Background_Outline" data-name="Background Outline" class="cls-7" cx="250" cy="258.78" r="193.56"/><g id="Head"><g id="Head_Clip" data-name="Head Clip"><g class="cls-8"><circle id="Shadow" class="cls-9" cx="250" cy="250" r="122.67"/><circle id="Light-2" data-name="Light" class="cls-10" cx="285.28" cy="225.14" r="151.87"/><path d="M223.78,298.6A70.24,70.24,0,0,0,283,291.85c0,11.08-3.44,17.28-7.88,22.34-4.06,4.61-9.48,9.33-14.76,10.56a25.4,25.4,0,0,1-9.56.05c-12.66-1.9-20.42-15.21-27.05-26.2"/><path d="M204.87,215.74c.21,11.11.11,22.23.32,33.34.15,8.36,13.16,8.38,13,0-.21-11.11-.11-22.23-.32-33.34-.15-8.36-13.15-8.38-13,0Z"/><path d="M282.94,215.14c.21,11.31.09,22.63.3,33.94.15,8.36,13.15,8.38,13,0-.21-11.31-.09-22.63-.3-33.94-.16-8.36-13.16-8.38-13,0Z"/></g></g><circle id="Head_Outline" data-name="Head Outline" class="cls-7" cx="250" cy="250" r="122.67"/></g><path class="cls-11" d="M143.74,273.22c20-.34,95.26-13.37,108.15-13.33,14.72,0,86,12.4,101.52,15-6.63,14.72-23.37,43.34-34,55.52s-19,25.75-34.38,30.6c-18.91,6-39.29,3.85-59,1.67-4.68-.52-28.63-17.52-39.95-29.31-10.58-11-23.41-20.44-36.15-46.52Z"/><path class="cls-11" d="M143.74,273.22c20-.34,95.26-13.37,108.15-13.33,14.72,0,86,12.4,101.52,15-6.63,14.72-23.37,43.34-34,55.52s-19,25.75-34.38,30.6c-18.91,6-39.29,3.85-59,1.67-4.68-.52-28.63-17.52-39.95-29.31-10.58-11-23.41-20.44-36.15-46.52Z"/><path d="M143.74,279.72c13.76-.3,27.6-2.7,41.2-4.59,16.05-2.23,32.07-4.69,48.14-6.82,9.58-1.27,18.58-2.26,28.2-1.22,15.35,1.66,30.61,4.2,45.85,6.65,14.86,2.39,29.7,4.93,44.55,7.42l-3.88-9.55a277.64,277.64,0,0,1-28.84,49,235.08,235.08,0,0,1-19,22.68c-8.22,8.61-17.56,12.72-29.34,14.28-12.92,1.71-26.11.54-39-.82a26.17,26.17,0,0,1-5-.69c1.1.34-1.66-.87-2.13-1.14a116.52,116.52,0,0,1-10-6.44c-13.85-9.71-26.15-21.41-37.72-33.71-12.34-13.1-20-28.68-27.41-44.86-3.47-7.6-14.67-1-11.22,6.56,7.16,15.69,14.65,30.74,26.12,43.85a249.68,249.68,0,0,0,40.51,37.12c5.61,4.1,12.3,9.77,19.23,11.42,6,1.42,12.69,1.47,18.81,1.93a159.07,159.07,0,0,0,20.48.42c12.84-.68,26.34-3,36.92-10.8,9.45-6.94,16.32-16.58,23.84-25.44,14.2-16.72,25.9-36.9,35-56.83,1.55-3.41.64-8.79-3.88-9.55-29.4-4.93-58.77-10.2-88.35-13.88a110.48,110.48,0,0,0-28.32-.12c-16.07,2-32.07,4.45-48.1,6.72-15.38,2.19-31.06,5-46.63,5.38C135.39,266.91,135.36,279.91,143.74,279.72Z"/><line class="cls-7" x1="144.39" y1="274.65" x2="127.81" y2="260.88"/><line class="cls-7" x1="162.42" y1="308.64" x2="137.44" y2="298.83"/><line class="cls-7" x1="353.41" y1="274.89" x2="369.22" y2="266.11"/><line class="cls-7" x1="336.72" y1="305.57" x2="366.26" y2="293.37"/><path class="cls-12" d="M198.45,295c33.4-4.53,67.92-8.85,100.7,1.49,8,2.52,11.42-10,3.45-12.54-35.09-11.07-71.89-6.33-107.61-1.49-3.5.48-5.34,4.93-4.54,8,1,3.76,4.54,5,8,4.54Z"/><path class="cls-12" d="M222,316.37l59.26.49c8.36.07,8.37-12.93,0-13L222,303.37c-8.37-.07-8.38,12.93,0,13Z"/><path class="cls-12" d="M273.94,331.53c-13.46,5.38-28.2,6-41.76.6-7.78-3.08-11.16,9.49-3.46,12.54,15.4,6.09,33.39,5.51,48.67-.61,7.68-3.07,4.33-15.65-3.45-12.53Z"/></g></svg>