<svg xmlns="http://www.w3.org/2000/svg" xmlns:xlink="http://www.w3.org/1999/xlink" viewBox="0 0 500 500"><defs><style>.cls-1,.cls-11{fill:none;}.cls-2{clip-path:url(#clip-path);}.cls-3{clip-path:url(#clip-path-2);}.cls-4{fill:#d6b82b;}.cls-5{fill:#ffdb33;}.cls-6{fill:#a756cc;}.cls-7{clip-path:url(#clip-path-3);}.cls-8{clip-path:url(#clip-path-4);}.cls-9{fill:#19681b;}.cls-10{fill:#218323;}.cls-11{stroke:#000;stroke-miterlimit:10;stroke-width:13px;}.cls-12{clip-path:url(#clip-path-5);}.cls-13{fill:#9f876a;}.cls-14{fill:#c3a581;}.cls-15{fill:#1d1d1b;}.cls-16{fill:#fff;}</style><clipPath id="clip-path"><circle id="Circle_Clipping_Mask" data-name="Circle Clipping Mask" class="cls-1" cx="250" cy="-261.22" r="193.56"/></clipPath><clipPath id="clip-path-2"><path id="Body_Clipping_Mask" data-name="Body Clipping Mask" class="cls-1" d="M127.11,184.08c.29-1.77,1-150,11.64-251.41,2.84-27.11,23.7-112.71,116-112.71,100.91,0,115.4,91.57,116.91,109.75,8.3,99.55,10.82,254.48,10.81,254.37Z"/></clipPath><clipPath id="clip-path-3"><circle id="Circle_Clipping_Mask-2" data-name="Circle Clipping Mask" class="cls-1" cx="250" cy="258.78" r="193.56"/></clipPath><clipPath id="clip-path-4"><path id="Body_Clipping_Mask-2" data-name="Body Clipping Mask" class="cls-1" d="M127.11,704.08c.29-1.77,1-150,11.64-251.41,2.84-27.11,23.7-112.71,116-112.71,100.91,0,115.4,91.57,116.91,109.75,8.3,99.55,10.82,254.48,10.81,254.37Z"/></clipPath><clipPath id="clip-path-5"><circle id="Head_Clipping_Mask" data-name="Head Clipping Mask" class="cls-1" cx="250" cy="249.14" r="122.67"/></clipPath></defs><g id="Cowboy"><g id="Body"><g id="Background_Clip" data-name="Background Clip"><g class="cls-2"><g id="Body_Clip" data-name="Body Clip"><g class="cls-3"><path id="Dark" class="cls-4" d="M127.11,184.08c.29-1.77,1-150,11.64-251.41,2.84-27.11,23.7-112.71,116-112.71,100.91,0,115.4,91.57,116.91,109.75,8.3,99.55,10.82,254.48,10.81,254.37Z"/><path id="Light" class="cls-5" d="M149.11,184.08c.29-1.77,1-150,11.64-251.41,2.84-27.11,23.7-112.71,116-112.71,100.91,0,115.4,91.57,116.91,109.75,8.3,99.55,10.82,254.48,10.81,254.37Z"/></g></g><g id="Body_Outline" data-name="Body Outline"><path d="M133.61,184.08c.58-4.77.19-9.84.26-14.63q.3-18.57.7-37.13c.85-37.66,2.12-75.31,4.14-112.92,1.1-20.48,2.42-40.94,4.15-61.37.74-8.75,1.52-17.51,2.48-26.24,0-.42.39-2.91.14-1.14.12-.88.25-1.75.39-2.63.34-2.07.72-4.12,1.14-6.17,4.53-21.89,13.54-43.62,28.17-60.72,21.25-24.82,51.7-35.46,83.91-34.61,30.43.81,59.25,11.93,79,35.61,13.25,15.88,21.14,35.41,25.21,55.51.33,1.63.63,3.26.9,4.9.12.69.22,1.39.33,2.08.37,2.32,0-.5.17,1.17.59,5,.92,10,1.3,15,1.45,19,2.6,38.05,3.61,57.1,3.23,60.91,5.16,121.91,6.25,182.9,0,1.09.05,2.18.06,3.27l6.5-6.5H127.11c-8.36,0-8.38,13,0,13H382.44a6.59,6.59,0,0,0,6.5-6.5c-.41-54.47-2.63-109-5.18-163.43-1-20.49-2.06-41-3.43-61.44-.84-12.67-1.36-25.47-3.24-38a143,143,0,0,0-20.79-56.06A110.73,110.73,0,0,0,286-183.34c-34.28-7.32-73.1-3-101.76,18.33-21.88,16.3-36.54,39.91-45,65.58-8.59,26-9.3,54-11.21,81.05-4.65,66-6.22,132.11-7.33,198.22a40,40,0,0,1-.1,4.24c-.43,3.51,3.29,6.47,6.5,6.5C131,190.62,133.19,187.55,133.61,184.08Z"/></g></g></g></g></g><g id="Aviators"><circle id="Background_Colour" data-name="Background Colour" class="cls-6" cx="250.11" cy="260.72" r="193.56"/><g id="Body-2" data-name="Body"><g id="Background_Clip-2" data-name="Background Clip"><g class="cls-7"><g id="Body_Clip-2" data-name="Body Clip"><g class="cls-8"><path id="Dark-2" data-name="Dark" class="cls-9" d="M127.11,704.08c.29-1.77,1-150,11.64-251.41,2.84-27.11,23.7-112.71,116-112.71,100.91,0,115.4,91.57,116.91,109.75,8.3,99.55,10.82,254.48,10.81,254.37Z"/><path id="Light-2" data-name="Light" class="cls-10" d="M149.11,704.08c.29-1.77,1-150,11.64-251.41,2.84-27.11,23.7-112.71,116-112.71,100.91,0,115.4,91.57,116.91,109.75,8.3,99.55,10.82,254.48,10.81,254.37Z"/></g></g><g id="Body_Outline-2" data-name="Body Outline"><path d="M133.61,704.08c.58-4.77.19-9.84.26-14.63q.3-18.57.7-37.13c.85-37.66,2.12-75.31,4.14-112.92,1.1-20.48,2.42-40.94,4.15-61.37.74-8.75,1.52-17.51,2.48-26.24,0-.42.39-2.91.14-1.14.12-.88.25-1.75.39-2.63.34-2.07.72-4.12,1.14-6.17,4.53-21.89,13.54-43.62,28.17-60.72,21.25-24.82,51.7-35.46,83.91-34.61,30.43.81,59.25,11.93,79,35.61,13.25,15.88,21.14,35.41,25.21,55.51.33,1.63.63,3.26.9,4.9.12.69.22,1.39.33,2.08.37,2.32,0-.5.17,1.17.59,5,.92,10,1.3,15,1.45,19,2.6,38.05,3.61,57.1,3.23,60.91,5.16,121.91,6.25,182.9,0,1.09.05,2.18.06,3.27l6.5-6.5H127.11c-8.36,0-8.38,13,0,13H382.44a6.59,6.59,0,0,0,6.5-6.5c-.41-54.47-2.63-109-5.18-163.43-1-20.49-2.06-41-3.43-61.44-.84-12.67-1.36-25.47-3.24-38a143,143,0,0,0-20.79-56.06A110.73,110.73,0,0,0,286,336.66c-34.28-7.32-73.1-3-101.76,18.33-21.88,16.3-36.54,39.91-45,65.58-8.59,26-9.3,54-11.21,81.05-4.65,66-6.22,132.11-7.33,198.22a40,40,0,0,1-.1,4.24c-.43,3.51,3.29,6.47,6.5,6.5C131,710.62,133.19,707.55,133.61,704.08Z"/></g></g></g></g><circle id="Background_Outline" data-name="Background Outline" class="cls-11" cx="250" cy="258.78" r="193.56"/><g id="Head"><g id="Head_Clip" data-name="Head Clip"><g class="cls-12"><circle id="Shadow" class="cls-13" cx="250" cy="249.14" r="122.67"/><circle id="Light-3" data-name="Light" class="cls-14" cx="285.72" cy="224.28" r="151.87"/><path d="M205,215.53l.32,15.61c.17,8.35,13.17,8.38,13,0L218,215.53c-.17-8.36-13.17-8.38-13,0Z"/><path d="M283.05,216.47l.3,14.67c.17,8.35,13.17,8.38,13,0l-.3-14.67c-.17-8.35-13.17-8.38-13,0Z"/><path d="M224.85,318.83c9.62,1.65,18.47,1.1,28.1.83,5.17-.14,10.27-.41,15.24-2,5.31-1.71,10.37-4.29,15.5-6.48,7.67-3.28,1.05-14.48-6.56-11.23-4.29,1.84-8.52,4-13,5.36-4.08,1.24-8,1.23-12.24,1.4-8.05.3-15.56,1-23.6-.41s-11.69,11.12-3.45,12.54Z"/></g></g><circle id="Head_Outline" data-name="Head Outline" class="cls-11" cx="250" cy="249.14" r="122.67"/></g><g id="Glasses"><path class="cls-15" d="M181.75,206.56c13.37-.81,47.82-1.34,58.72,11.58,8.67,10.28-15.79,61.39-65.12,61.39-27.83,0-28.9-21.7-28.9-30.25C146.45,219.32,150.82,208.43,181.75,206.56Z"/><polygon class="cls-16" points="163.87 279.53 151.62 277.73 182.84 206.38 195.41 206.38 163.87 279.53"/><polygon class="cls-16" points="152.13 269.09 148.68 265.96 175.26 206.38 179.39 206.38 152.13 269.09"/><path class="cls-11" d="M181.75,206.56c13.37-.81,47.82-1.34,58.72,11.58,8.67,10.28-15.79,61.39-65.12,61.39-27.83,0-28.9-21.7-28.9-30.25C146.45,219.32,150.82,208.43,181.75,206.56Z"/><line class="cls-11" x1="230.22" y1="211.39" x2="269.57" y2="211.39"/><path class="cls-11" d="M236.78,241.76s13.38-15.12,26.76,1.11"/><path class="cls-15" d="M318,206.56c-13.37-.81-47.81-1.34-58.72,11.58-8.67,10.28,15.79,61.39,65.12,61.39,27.84,0,28.91-21.7,28.91-30.25C353.35,219.32,349,208.43,318,206.56Z"/><polygon class="cls-16" points="283.15 269.09 274.69 258.78 297.7 206.21 310.27 206.21 283.15 269.09"/><polygon class="cls-16" points="272.22 256.88 268.26 255.21 290.13 206.21 294.25 206.21 272.22 256.88"/><path class="cls-11" d="M318,206.56c-13.37-.81-47.81-1.34-58.72,11.58-8.67,10.28,15.79,61.39,65.12,61.39,27.84,0,28.91-21.7,28.91-30.25C353.35,219.32,349,208.43,318,206.56Z"/><line class="cls-11" x1="151.41" y1="219.03" x2="134.6" y2="217.91"/><line class="cls-11" x1="348.38" y1="219.03" x2="365.62" y2="217.91"/></g></g></svg>