<svg xmlns="http://www.w3.org/2000/svg" xmlns:xlink="http://www.w3.org/1999/xlink" viewBox="0 0 500 500"><defs><style>.cls-1,.cls-9{fill:none;}.cls-2{fill:#a756cc;}.cls-3{clip-path:url(#clip-path);}.cls-4{clip-path:url(#clip-path-2);}.cls-5{fill:#7d4e24;}.cls-6{fill:#936037;}.cls-11,.cls-7{fill:#fff;}.cls-8{fill:#cecece;}.cls-11,.cls-9{stroke:#000;stroke-width:13px;}.cls-9{stroke-miterlimit:10;}.cls-10{clip-path:url(#clip-path-3);}.cls-11{stroke-linejoin:round;}</style><clipPath id="clip-path"><circle id="Circle_Clipping_Mask" data-name="Circle Clipping Mask" class="cls-1" cx="250" cy="258.78" r="193.56"/></clipPath><clipPath id="clip-path-2"><path id="Body_Clipping_Mask" data-name="Body Clipping Mask" class="cls-1" d="M127.11,704.08c.29-1.77,1-150,11.64-251.41,2.84-27.11,23.7-112.71,116-112.71,100.91,0,115.4,91.57,116.91,109.75,8.3,99.55,10.82,254.48,10.81,254.37Z"/></clipPath><clipPath id="clip-path-3"><circle id="Head_Clipping_Mask" data-name="Head Clipping Mask" class="cls-1" cx="250" cy="250" r="122.67"/></clipPath></defs><g id="Elvis"><circle id="Background_Colour" data-name="Background Colour" class="cls-2" cx="251.33" cy="258.67" r="193.56"/><g id="Body"><g id="Background_Clip" data-name="Background Clip"><g class="cls-3"><g id="Body_Clip" data-name="Body Clip"><g class="cls-4"><path id="Dark" class="cls-5" d="M127.11,704.08c.29-1.77,1-150,11.64-251.41,2.84-27.11,23.7-112.71,116-112.71,100.91,0,115.4,91.57,116.91,109.75,8.3,99.55,10.82,254.48,10.81,254.37Z"/><path id="Light" class="cls-6" d="M149.11,704.08c.29-1.77,1-150,11.64-251.41,2.84-27.11,23.7-112.71,116-112.71,100.91,0,115.4,91.57,116.91,109.75,8.3,99.55,10.82,254.48,10.81,254.37Z"/></g></g><g id="Elvis_Shirt" data-name="Elvis Shirt"><path class="cls-7" d="M367.18,402.56c1.32-24.35,24.74-79.79,31.71-89.34-21.45,2.49-56.87,7.3-57.78,7.95-.3.21-39,64.32-65.63,91.16-12.8,12.92-21.12,51.11-23,51.11s-11-35.51-24.49-47.83c-27.89-25.44-70.79-89.47-70.79-89.47l-51.11-6.66s32.63,57,26.71,87.08,8.29,35.29,8.29,35.29l5.33,42H362.62l-4.84-52.63Z"/><path class="cls-8" d="M153.46,340.74c.33-2.48-.67,1.54-1,2.51-.79,2.17-1.67,4.32-2.56,6.46-2.27,5.46-4.7,10.86-7.11,16.27-3.63,8.12-8.79,16.68-11.05,25.32-2.12,8.1,10.42,11.56,12.53,3.46.17-.63,1.18-3.05.66-1.83.89-2.12,1.84-4.22,2.78-6.32,2.53-5.68,5.1-11.34,7.62-17,4-9,9.84-18.92,11.15-28.85.47-3.51-3.32-6.47-6.5-6.5-3.89,0-6,3-6.5,6.5Z"/><path class="cls-8" d="M336.1,330.13c3.14,10.56,8.62,20.79,12.93,30.91,2.68,6.28,5.35,12.56,7.9,18.89,1.4,3.46,3.46,7.31,4,11.05.49,3.51,4.92,5.36,8,4.54,3.75-1,5-4.53,4.54-8s-2.48-7.32-3.82-10.66c-2.76-6.84-5.64-13.62-8.53-20.4-4.18-9.83-9.43-19.61-12.46-29.8-2.38-8-14.93-4.59-12.54,3.46Z"/><path d="M373.68,402.56c1.05-16.49,7.68-33.21,13.5-48.49,4.76-12.48,9.5-26.58,17.32-37.57,2.69-3.79-.86-10.33-5.61-9.78-19,2.21-38.16,4.25-57,7.64-4,.71-5.92,2.73-7.95,6q-4.36,7-8.81,13.94c-10.33,16.12-21,32.05-32.47,47.4A277.36,277.36,0,0,1,274.48,404c-5.83,6.33-10.6,12.52-14.23,20.41a237.28,237.28,0,0,0-9.88,26.36c-.89,2.73-1.77,5.47-2.71,8.19-.53,1.51-.36.34.45-.19h8.76c.76,1.06.95,1.28.58.66,0-.27-.47-.89-.55-1.15.33,1.16-.83-2.2-1.06-2.82-.66-1.74-1.3-3.48-2-5.22-1.67-4.44-3.4-8.86-5.27-13.22-3.62-8.43-7.74-16.94-13.92-23.83-5.89-6.58-12.54-12.45-18.37-19.13-6.51-7.46-12.73-15.17-18.78-23-10.29-13.32-20.15-27-29.72-40.83-2.15-3.11-5-9.14-8.88-10.3-4.36-1.31-9.64-1.27-14.12-1.85l-38.72-5c-5-.65-8,6-5.61,9.78,13.21,20.85,25.46,44.42,30.59,68.69,3.24,15.36.26,31.33,2.59,46.89.3,2,.54,5,1.81,6.76-1-1.39-1.07-4.8-.62-1.22l.87,6.89,4.2,33.12c.44,3.49,2.62,6.5,6.5,6.5H362.62c3.28,0,6.83-3,6.5-6.5l-4.25-46.17c-.16-1.79.14-4.68-.58-6.36.55,1.3-.51,2.11.34-.16.62-1.62,1.09-3.32,1.63-5l7.19-22c2.61-8-9.94-11.38-12.54-3.45l-7.32,22.35c-1.72,5.25-2.28,8.44-1.78,13.88l4.31,46.83,6.5-6.5H146.44l6.5,6.5-3.76-29.65c-.51-4-1-8.08-1.53-12.12-.16-1.19-1.26-5.82-.4-2.33-.2-.83-.46-1.64-.63-2.48a27.36,27.36,0,0,1-.65-4.92c-.34-3.8-.49-7.63-.57-11.45-.19-9.5.56-18.9-.92-28.33-2.6-16.53-9.49-32.43-16.77-47.38a297.75,297.75,0,0,0-16-29L106.11,326l51.11,6.66-5.61-3.21q19.63,29.26,41.6,57c9.9,12.47,20.67,23.7,31.61,35.19,9.62,10.11,13.91,25.28,18.76,38,1.77,4.65,4,11.88,10.65,10.1,4.78-1.28,6-7.21,7.3-11.28,4.3-13.13,8-28,16.51-39.17,4.19-5.51,9.51-10.31,13.92-15.69,5.5-6.7,10.74-13.61,15.84-20.62,9.39-12.91,18.3-26.18,27-39.61q4.74-7.36,9.39-14.8a25.07,25.07,0,0,0,2.21-3.53c.93-2.33-3.9,2.17-3.06,2.28a8.34,8.34,0,0,0,2.06-.4c17.69-3.17,35.69-5.09,53.53-7.17l-5.62-9.78c-3.21,4.52-5.5,9.78-7.81,14.79-3.91,8.49-7.49,17.15-10.81,25.89-6.29,16.51-12.84,34.14-14,51.94C360.15,410.91,373.15,410.88,373.68,402.56Z"/></g><g id="Body_Outline" data-name="Body Outline"><path d="M133.61,704.08c.58-4.77.19-9.84.26-14.63q.3-18.57.7-37.13c.85-37.66,2.12-75.31,4.14-112.92,1.1-20.48,2.42-40.94,4.15-61.37.74-8.75,1.52-17.51,2.48-26.24,0-.42.39-2.91.14-1.14.12-.88.25-1.75.39-2.63.34-2.07.72-4.12,1.14-6.17,4.53-21.89,13.54-43.62,28.17-60.72,21.25-24.82,51.7-35.46,83.91-34.61,30.43.81,59.25,11.93,79,35.61,13.25,15.88,21.14,35.41,25.21,55.51.33,1.63.63,3.26.9,4.9.12.69.22,1.39.33,2.08.37,2.32,0-.5.17,1.17.59,5,.92,10,1.3,15,1.45,19,2.6,38.05,3.61,57.1,3.23,60.91,5.16,121.91,6.25,182.9,0,1.09.05,2.18.06,3.27l6.5-6.5H127.11c-8.36,0-8.38,13,0,13H382.44a6.59,6.59,0,0,0,6.5-6.5c-.41-54.47-2.63-109-5.18-163.43-1-20.49-2.06-41-3.43-61.44-.84-12.67-1.36-25.47-3.24-38a143,143,0,0,0-20.79-56.06A110.73,110.73,0,0,0,286,336.66c-34.28-7.32-73.1-3-101.76,18.33-21.88,16.3-36.54,39.91-45,65.58-8.59,26-9.3,54-11.21,81.05-4.65,66-6.22,132.11-7.33,198.22a40,40,0,0,1-.1,4.24c-.43,3.51,3.29,6.47,6.5,6.5C131,710.62,133.19,707.55,133.61,704.08Z"/></g></g></g></g><circle id="Background_Outline" data-name="Background Outline" class="cls-9" cx="250" cy="258.78" r="193.56"/><g id="Head"><g id="Head_Clip" data-name="Head Clip"><g class="cls-10"><circle id="Shadow" class="cls-5" cx="250" cy="250" r="122.67"/><circle id="Light-2" data-name="Light" class="cls-6" cx="285.28" cy="225.14" r="151.87"/><path d="M223.78,298.6A70.24,70.24,0,0,0,283,291.85c0,11.08-3.44,17.28-7.88,22.34-4.06,4.61-9.48,9.33-14.76,10.56a25.4,25.4,0,0,1-9.56.05c-12.66-1.9-20.42-15.21-27.05-26.2"/><path d="M204.87,215.74c.21,11.11.11,22.23.32,33.34.15,8.36,13.16,8.38,13,0-.21-11.11-.11-22.23-.32-33.34-.15-8.36-13.15-8.38-13,0Z"/><path d="M282.94,215.14c.21,11.31.09,22.63.3,33.94.15,8.36,13.15,8.38,13,0-.21-11.31-.09-22.63-.3-33.94-.16-8.36-13.16-8.38-13,0Z"/></g></g><circle id="Head_Outline" data-name="Head Outline" class="cls-9" cx="250" cy="250" r="122.67"/></g><polygon class="cls-11" points="347.17 317.32 383.37 416.83 406.63 394.91 412.44 308.05 347.17 317.32"/><polygon class="cls-11" points="154.66 322.81 122.74 422.33 102.24 400.41 97.12 313.55 154.66 322.81"/></g><g id="Layer_5" data-name="Layer 5"><path d="M366.44,220.3c-8.53,4.33-13.62,13.37-16.75,22.41s-4.85,18.61-9.12,27.17c-7.61,15.27-22.37,25.5-36.68,34.81-3.83,2.49-8,5.49-8.73,10,9.28,2.67,19.16.25,28.5-2.18,5.64-1.46,11.31-2.93,16.58-5.42,10.63-5,18.92-13.82,26.94-22.41"/><path d="M363.16,214.69c-21.39,11.72-19.12,37.63-30.52,56.07-5.44,8.8-13.63,15.66-22,21.57-7.87,5.56-19.32,10.36-21.74,20.64a6.6,6.6,0,0,0,4.54,8c14.36,3.63,30.95-.8,44.5-5.91,13.77-5.2,24-15.21,33.84-25.78,5.7-6.11-3.47-15.32-9.19-9.19-8.18,8.76-16.67,18-28.1,22.43a135,135,0,0,1-17.86,5.06c-6.56,1.54-13.12,2.53-19.74.86l4.54,8c.92-3.88,5.33-5.84,8.42-7.88,4.28-2.81,8.5-5.71,12.57-8.82,7.86-6,15.11-12.75,20.59-21.06,5.83-8.85,8.3-19.09,11.3-29.1,2.77-9.21,6.55-18.79,15.41-23.65,7.34-4,.79-15.25-6.56-11.22Z"/><path d="M137.19,201.74l1.14-21.43c.32-6.19.64-12.46-.55-18.55-2.25-11.41-9.6-21.16-13.12-32.25-4.25-13.43-3-28.94-11.16-40.4C105.73,78.22,90.2,72.2,88.12,59c16.62,13.36,40.35,14,61.09,9s37-19.13,57.55-25c11.43-3.26,69.46-14.13,87.11-11.85,7.09.92,42.07,2.37,56.3,33.78l3.45,119.34s-16.9-18.71-46.88-31.24c-15.1-6.32-33.51,16.2-54.76,16.2-17.93,0-40.68-19.71-55.8-12.86C157.83,173.78,137.19,201.74,137.19,201.74Z"/><path d="M143.69,201.74c.8-15.06,3.76-31.85-.89-46.5-2.19-6.89-5.73-13.25-8.78-19.77a72.38,72.38,0,0,1-5.67-19.23c-2.15-12.83-4-25.3-13.15-35.24-6.91-7.49-18.74-13-20.82-23.75L83.52,63.57c17.6,13.68,39.85,15.88,61.27,12,22.71-4.1,40.43-19.11,62.09-25.8,11.68-3.61,24.13-5.39,36.16-7.4,14.84-2.48,30.07-5.08,45.16-5a79.24,79.24,0,0,1,27.5,4.83,51.42,51.42,0,0,1,18.54,11.18A45.64,45.64,0,0,1,342,63.21c.81,1.39,2.16,6,1.71,1.78a2.79,2.79,0,0,1,0,.5c-.76,6.53.4,13.85.59,20.4l1.08,37.25,1.77,61.16,11.1-4.6c-8.8-9.67-20.27-17.59-31.54-24-8.88-5.09-19-11.45-29.66-9.84-9.06,1.36-17.16,6.71-25.18,10.8-8.42,4.3-17.12,7.59-26.61,5.16-9.73-2.49-18.58-7.5-28.06-10.7-9.75-3.28-18.13-3.28-27.42,1.18a167,167,0,0,0-29.18,18c-10.66,8.15-20.95,17.38-29,28.2-5,6.72,6.29,13.21,11.23,6.56.55-.75-.54.69-.59.76.34-.42.66-.85,1-1.26,1.38-1.67,2.79-3.31,4.26-4.92a160,160,0,0,1,39.85-31.46c4.13-2.31,8.93-5.6,13.62-6.49,3.84-.73,7.87.41,11.51,1.56,8.94,2.83,17.23,7.37,26.17,10.2a42.79,42.79,0,0,0,27,0c9.06-3,17-8.24,25.64-12.19,2.8-1.29,5.93-2.62,9.05-2.76,4.47-.19,8.82,2.64,12.68,4.58,13,6.55,26.17,15,36.06,25.86,3.77,4.15,11.25.92,11.09-4.6l-3.39-117c-.34-11.85-11.9-23-21-29.4-11-7.69-24.15-11.17-37.3-12.73-11.4-1.35-22.61-.38-34,1-15.9,2-31.75,4.59-47.44,7.81a119.66,119.66,0,0,0-19.84,5.45c-12.07,4.76-23.08,11.67-34.84,17.07-20.78,9.55-50.39,12.76-69.58-2.16-5.1-4-12.16-.41-10.86,6.32C84.06,72.15,93.55,78.78,101.7,86c4.19,3.73,7.72,7.66,9.75,13,2.33,6.09,3.08,12.73,4.1,19.12a82.48,82.48,0,0,0,5.22,19.34c2.58,6.13,6,11.91,8.39,18.11,5.56,14.3,2.32,31.22,1.53,46.16C130.25,210.1,143.25,210.08,143.69,201.74Z"/><path d="M132.82,225.92c9.08,3.62,14.87,12.25,18.64,21s6.1,18.24,11,26.46c8.77,14.66,24.64,23.67,40,31.78,4.1,2.17,8.63,4.82,9.61,9.29-9.45,3.45-19.82,1.86-29.62.23-5.92-1-11.88-2-17.47-4-11.3-4.14-20.39-12.25-29.19-20.19"/><path d="M129.54,231.54c9.1,4,13.9,12.38,17.33,21.31,3.95,10.3,7.13,20.76,14,29.6,5.94,7.66,13.6,13.74,21.74,18.93,4,2.57,8.19,4.92,12.39,7.19,3.25,1.76,9.63,3.78,10.82,7.65l4.54-8c-12,4-26.55.93-38.51-2.21-12.48-3.28-22.08-11.66-31.45-20.1-6.2-5.59-15.42,3.58-9.19,9.19,11,9.94,22.5,19.59,37.18,23.44,14.14,3.71,31.23,6.94,45.42,2.22,3.26-1.09,5.62-4.49,4.54-8-3.11-10.12-14-13.7-22.36-18.5-9.18-5.25-18.33-11.25-24.9-19.7-13.42-17.27-12.3-44.38-35-54.25-7.6-3.31-14.22,7.89-6.56,11.23Z"/></g></svg>