<svg id="Cowboy" xmlns="http://www.w3.org/2000/svg" xmlns:xlink="http://www.w3.org/1999/xlink" viewBox="0 0 500 500"><defs><style>.cls-1,.cls-7{fill:none;}.cls-2{fill:#a756cc;}.cls-3{clip-path:url(#clip-path);}.cls-4{clip-path:url(#clip-path-2);}.cls-5{fill:#d6b82b;}.cls-6{fill:#ffdb33;}.cls-7{stroke:#000;stroke-miterlimit:10;stroke-width:13px;}.cls-8{clip-path:url(#clip-path-3);}.cls-9{fill:#d3bbaf;}.cls-10{fill:#ffe1d2;}.cls-11{fill:#e2b90e;}.cls-12{fill:#7d4e24;}.cls-13{fill:#683c11;}</style><clipPath id="clip-path"><circle id="Circle_Clipping_Mask" data-name="Circle Clipping Mask" class="cls-1" cx="250" cy="258.78" r="193.56"/></clipPath><clipPath id="clip-path-2"><path id="Body_Clipping_Mask" data-name="Body Clipping Mask" class="cls-1" d="M127.11,704.08c.29-1.77,1-150,11.64-251.41,2.84-27.11,23.7-112.71,116-112.71,100.91,0,115.4,91.57,116.91,109.75,8.3,99.55,10.82,254.48,10.81,254.37Z"/></clipPath><clipPath id="clip-path-3"><circle id="Head_Clipping_Mask" data-name="Head Clipping Mask" class="cls-1" cx="250" cy="249.14" r="122.67"/></clipPath></defs><circle id="Background_Colour" data-name="Background Colour" class="cls-2" cx="250" cy="258.78" r="193.56"/><g id="Body"><g id="Background_Clip" data-name="Background Clip"><g class="cls-3"><g id="Body_Clip" data-name="Body Clip"><g class="cls-4"><path id="Dark" class="cls-5" d="M127.11,704.08c.29-1.77,1-150,11.64-251.41,2.84-27.11,23.7-112.71,116-112.71,100.91,0,115.4,91.57,116.91,109.75,8.3,99.55,10.82,254.48,10.81,254.37Z"/><path id="Light" class="cls-6" d="M149.11,704.08c.29-1.77,1-150,11.64-251.41,2.84-27.11,23.7-112.71,116-112.71,100.91,0,115.4,91.57,116.91,109.75,8.3,99.55,10.82,254.48,10.81,254.37Z"/></g></g><g id="Body_Outline" data-name="Body Outline"><path d="M133.61,704.08c.58-4.77.19-9.84.26-14.63q.3-18.57.7-37.13c.85-37.66,2.12-75.31,4.14-112.92,1.1-20.48,2.42-40.94,4.15-61.37.74-8.75,1.52-17.51,2.48-26.24,0-.42.39-2.91.14-1.14.12-.88.25-1.75.39-2.63.34-2.07.72-4.12,1.14-6.17,4.53-21.89,13.54-43.62,28.17-60.72,21.25-24.82,51.7-35.46,83.91-34.61,30.43.81,59.25,11.93,79,35.61,13.25,15.88,21.14,35.41,25.21,55.51.33,1.63.63,3.26.9,4.9.12.69.22,1.39.33,2.08.37,2.32,0-.5.17,1.17.59,5,.92,10,1.3,15,1.45,19,2.6,38.05,3.61,57.1,3.23,60.91,5.16,121.91,6.25,182.9,0,1.09.05,2.18.06,3.27l6.5-6.5H127.11c-8.36,0-8.38,13,0,13H382.44a6.59,6.59,0,0,0,6.5-6.5c-.41-54.47-2.63-109-5.18-163.43-1-20.49-2.06-41-3.43-61.44-.84-12.67-1.36-25.47-3.24-38a143,143,0,0,0-20.79-56.06A110.73,110.73,0,0,0,286,336.66c-34.28-7.32-73.1-3-101.76,18.33-21.88,16.3-36.54,39.91-45,65.58-8.59,26-9.3,54-11.21,81.05-4.65,66-6.22,132.11-7.33,198.22a40,40,0,0,1-.1,4.24c-.43,3.51,3.29,6.47,6.5,6.5C131,710.62,133.19,707.55,133.61,704.08Z"/></g></g></g></g><circle id="Background_Outline" data-name="Background Outline" class="cls-7" cx="250" cy="258.78" r="193.56"/><g id="Head"><g id="Head_Clip" data-name="Head Clip"><g class="cls-8"><circle id="Shadow" class="cls-9" cx="250" cy="249.14" r="122.67"/><circle id="Light-2" data-name="Light" class="cls-10" cx="285.72" cy="224.28" r="151.87"/><ellipse id="Hat_Shadow" data-name="Hat Shadow" class="cls-9" cx="242.55" cy="185.64" rx="230.52" ry="37.86"/><path d="M205,215.53l.32,15.61c.17,8.35,13.17,8.38,13,0L218,215.53c-.17-8.36-13.17-8.38-13,0Z"/><path d="M283.05,216.47l.3,14.67c.17,8.35,13.17,8.38,13,0l-.3-14.67c-.17-8.35-13.17-8.38-13,0Z"/><path d="M234.61,304.28a44.61,44.61,0,0,0,49.45-19c4.58-7-6.67-13.55-11.22-6.56a31.28,31.28,0,0,1-34.77,13.06c-8.09-2.17-11.54,10.37-3.46,12.53Z"/></g></g><circle id="Head_Outline" data-name="Head Outline" class="cls-7" cx="250" cy="249.14" r="122.67"/></g><g id="Straw"><path class="cls-11" d="M313.7,332.09a30.21,30.21,0,0,0-1,14.41c.49,3.48,4.93,5.38,8,4.54,3.74-1,5-4.51,4.54-8a16.19,16.19,0,0,1,1-7.5c1.15-3.31-1.32-7.11-4.54-8-3.59-1-6.84,1.21-8,4.54Z"/><path class="cls-11" d="M320.34,340.25q.77,6.42,1.18,12.86a6.64,6.64,0,0,0,6.5,6.5c3.34,0,6.72-3,6.5-6.5q-.42-6.44-1.18-12.86c-.42-3.48-2.69-6.5-6.5-6.5-3.19,0-6.92,3-6.5,6.5Z"/><path class="cls-11" d="M327.83,342.63c.4,0,.81,0,1.21.05-.71-.12-.68-.11.1,0,.6.15,1.19.3,1.79.47,1.67.48-.79-.52.76.3a20.61,20.61,0,0,1,2.16,1.3c2.82,1.92,7.33.62,8.89-2.33a6.66,6.66,0,0,0-2.33-8.9,23.21,23.21,0,0,0-12.58-3.92,6.5,6.5,0,0,0,0,13Z"/><path class="cls-11" d="M304.85,322.66a63.58,63.58,0,0,0,2.42,13.4,6.5,6.5,0,0,0,12.54-3.46,47,47,0,0,1-2-9.94c-.27-3.5-2.79-6.5-6.5-6.5-3.31,0-6.78,3-6.5,6.5Z"/><path class="cls-11" d="M321.8,334.32c1.45.15-.4-.18.91.15.76.2,1.52.35,2.27.58.29.08,1.74.57,1.45.46s-.19-.1.47.21l1.22.61c3,1.57,7.2.88,8.89-2.33,1.58-3,.89-7.21-2.33-8.89a34.85,34.85,0,0,0-12.88-3.79c-3.39-.34-6.65,3.24-6.5,6.5.17,3.82,2.86,6.13,6.5,6.5Z"/><path class="cls-11" d="M277,294.57c21.28,12.05,32.57,35.56,49.35,52.5,5.9,5.95,15.09-3.24,9.19-9.19-17.71-17.88-29.47-41.79-52-54.54-7.29-4.13-13.85,7.1-6.56,11.23Z"/></g><g id="Cowboy_Hat" data-name="Cowboy Hat"><path class="cls-12" d="M174,49.09l-25.36,129.5s53.48,11.12,55.54,11.12,150.23-7.54,150.23-7.54S339.64,38.8,315.81,49.09s-39.58,11.66-64.29,11.66S198,30.57,174,49.09Z"/><path class="cls-13" d="M347,160.06c-33.34,4.43-67.05,5.52-100.61,7.28-15.57.82-31.91,3.12-47.46,1.4-7.83-.87-15.55-2.65-23.36-3.65-6.39-.81-12.81-1.22-19.24-1.64-8.35-.54-8.32,12.47,0,13,14.08.91,27.67,3.54,41.64,5.17,15.88,1.86,32.52-.45,48.42-1.28,33.56-1.76,67.27-2.85,100.61-7.28,3.51-.47,6.46-2.65,6.5-6.5,0-3.16-3-7-6.5-6.5Z"/><path class="cls-13" d="M197.05,49.29c8.21,9,21.24,14.07,31.69,19.9,10.06,5.62,20.06,11.24,31.71,12.52,19.77,2.17,35.71-12.14,49.77-24,6.49-5.47-2.74-14.21-9.19-9.19a62,62,0,0,1-22.61,10.63c-8.9,2.23-18.84.78-27.92.47-8.37-.28-8.36,12.72,0,13,10.9.37,22.22,1.67,32.86-1.34a78.23,78.23,0,0,0,26.86-13.57L301,48.53c-11.11,9.36-24.49,22.32-40.31,20.21-9.9-1.33-18.58-7-27.13-11.73L219,48.86c-4.56-2.54-9.18-4.86-12.74-8.76-5.66-6.19-14.83,3-9.2,9.19Z"/><path class="cls-7" d="M174,49.09l-25.36,129.5s53.48,11.12,55.54,11.12,150.23-7.54,150.23-7.54S339.64,38.8,315.81,49.09s-39.58,11.66-64.29,11.66S198,30.57,174,49.09Z"/><path class="cls-12" d="M443.42,122.84c.1,19.33-18.76,36-36.59,49.77-14,10.87-16.51,11.64-24.21,14.57-8.77,3.35-19.63,5.2-31,6.58-13.56,1.64-27.27,2.55-40.91,3.32C276.82,199,242.9,200.92,209,200.45a283.85,283.85,0,0,1-91.39-15.85c-13.33-4.61-24.88-11.54-49.72-30.23-17.73-17.76-15.13-31.17-11.32-34.61C82,96.78,77,124,98.88,145.67c30.94,30.61,48.92,32.11,82,35.64,34.35,3.67,168,1.88,191.44-11.11,21.87-12.12,33.7-39.89,33.7-39.89s9.69-33.19,22.86-30.78C448.33,103.09,443.3,101.53,443.42,122.84Z"/><path d="M436.92,122.84c-.35,19.07-19.75,33.55-33.38,44.16-5.54,4.32-11.22,8.89-17.62,11.9-6,2.83-14.17,5-21.31,6.38-23.26,4.39-47.29,5-70.87,6.25-24.25,1.32-48.52,2.45-72.8,2.49-22.79,0-45.36-1.35-67.69-6.15-16.58-3.56-33.77-7.9-48.69-16.24a211.75,211.75,0,0,1-19.23-12.45c-8.51-6-16.82-11.76-22-21.11a24,24,0,0,1-3-8.21,19.32,19.32,0,0,1-.07-3.15c0-.28.52-2.19.34-1.56a3.28,3.28,0,0,1,.65-1.11c-.11.12-.9,1.09-.15.32a34.58,34.58,0,0,1,4.81-4,33.32,33.32,0,0,1,4.23-2.5c1.3-.66,1.39-.39,1.64-.3-.54-.19.24.12.58.5a19.52,19.52,0,0,1,1.78,2.29c1.88,2.81,3.37,5.9,5,8.87a92.57,92.57,0,0,0,15.12,21c12.47,12.6,26.85,23.75,43.62,29.85,14,5.1,29.32,6.38,44,7.81,9.29.9,18.65,1.15,28,1.35,27.79.6,55.64.08,83.4-1.34,23.63-1.21,48.38-2.12,71.39-8.09,21.72-5.63,38.09-26.14,46.85-46,3.29-7.47,5.23-15.18,9.81-22.14,3.13-4.76,4.73-6.11,9.45-5.23,2.4.44,4.73,1,7.1,1.57.87.19-1,.16.22.07.51,0,.63,1.14-.24-.27.55.89-.18-.25-.29-.39-1.42-1.8.35-.29-.11,0,.05,0-.14-1.3-.09-.18,0,.52,0,1,0,1.56,0,1.17-.11,2.35-.17,3.51-.19,3.49-.32,7-.32,10.45,0,8.36,13,8.38,13,0,0-10.67,3.71-23.82-9.48-27.61-5.92-1.71-13.13-3.54-19-.93s-10,8.31-13.13,13.8a101,101,0,0,0-7.19,16.32,20.76,20.76,0,0,0-1.3,4c-.12,1,1-2.05.48-1.09-.3.61-.57,1.25-.87,1.87-5.84,12.12-14.12,24.15-25.14,32.1a40.13,40.13,0,0,1-7.19,4.28c1.36-.6-.22.07-.77.25-1.09.35-2.18.72-3.28,1a121.57,121.57,0,0,1-13.48,2.9c-12.63,2.12-25.44,3.21-38.21,4.12-30.07,2.15-60.28,2.89-90.42,2.61-24.57-.23-50.9-.22-74.62-7.22-17.52-5.17-32.95-17.12-45.12-30.49-5.7-6.26-9.5-13.73-13.57-21.07-3-5.36-6.65-11.26-13-12.77-7.58-1.8-14.63,3.48-20.08,8-4.76,3.95-7.23,8.55-7.28,14.85-.07,7.89,3.5,15.55,8,21.83,6.6,9.18,15.59,15.27,24.73,21.71,12.42,8.75,25.1,16,39.54,20.84a291.34,291.34,0,0,0,71,14c25,1.8,50.27.82,75.28-.26,25.34-1.08,50.8-2.13,76.05-4.59,18.14-1.77,38-3.65,54.13-13.06,8-4.7,15.42-10.87,22.6-16.76,8.21-6.74,16-14,22.19-22.73,5.45-7.67,8.94-16.46,9.12-25.93C450.07,114.47,437.07,114.47,436.92,122.84Z"/></g></svg>