<?xml version="1.0"?>
<svg xmlns="http://www.w3.org/2000/svg" id="Outline" viewBox="0 0 512 512" width="512" height="512" fill="#fdd651"><path d="M457.075,121.092a48.177,48.177,0,0,0-29.5-42.267l-72.047-30.02L299.969,17.054A7.985,7.985,0,0,0,296,16.008V16H216v.007a7.983,7.983,0,0,0-3.969,1.047L156.467,48.805,84.42,78.825a48.177,48.177,0,0,0-29.5,42.267L40.007,471.66a8,8,0,0,0,5.8,8.032l56,16,0-.009A8.007,8.007,0,0,0,104,496h86a57.627,57.627,0,0,0,29.342-8h73.316A57.627,57.627,0,0,0,322,496h86a8.007,8.007,0,0,0,2.2-.317l0,.009,56-16a8,8,0,0,0,5.8-8.032ZM302.93,37.174,344,60.643V89.754l-25.94,6.485a8,8,0,0,0-5.414,10.912l22.58,52.684-51.6,108.922Zm-38.9,274.161c-.018.223-.025.445-.025.665h0V438a57.677,57.677,0,0,0,11.053,34H236.947A57.677,57.677,0,0,0,248,438V312h0c0-.22-.007-.442-.025-.665L227.361,64h57.278ZM285.972,48H226.028L224.7,32h62.61ZM168,60.643l41.07-23.469,19.3,231.583L176.774,159.835l22.58-52.684a8,8,0,0,0-5.414-10.912L168,89.754ZM124.552,344H168a16.019,16.019,0,0,1-16,16H123.16Zm-6.261,72H168a16.019,16.019,0,0,1-16,16H116.9Zm-5.565,64,2.782-32H152a32.036,32.036,0,0,0,32-32v-8a8,8,0,0,0-8-8H119.682l2.087-24H152a32.036,32.036,0,0,0,32-32v-8a8,8,0,0,0-8-8H125.943l2.027-23.307a7.907,7.907,0,0,0,.014-1.192l-8-128-15.968,1,7.963,127.4L96.871,477.643l-40.61-11.6,14.65-344.268A32.119,32.119,0,0,1,90.574,93.594L152,68V96a8,8,0,0,0,6.06,7.761l22.886,5.722-20.3,47.366a8,8,0,0,0,.125,6.576L232,313.8V438a42.047,42.047,0,0,1-42,42Zm302.4-2.357L400.021,303.9l7.963-127.4-15.968-1-8,128a7.892,7.892,0,0,0,.014,1.191L386.059,328H336a8,8,0,0,0-8,8v8a32.036,32.036,0,0,0,32,32h30.236l9.038,104H322a42.047,42.047,0,0,1-42-42V313.8L333.9,200H368V184H341.483l9.746-20.575a8,8,0,0,0,.125-6.576l-20.3-47.366,22.886-5.722A8,8,0,0,0,360,96V68l61.426,25.594a32.119,32.119,0,0,1,19.663,28.178l14.65,344.268ZM388.844,360H360a16.019,16.019,0,0,1-16-16h43.451Z"/><rect x="200" y="328" width="16" height="16"/><rect x="200" y="376" width="16" height="16"/></svg>
