<svg height="512" viewBox="0 0 60 60" width="512" xmlns="http://www.w3.org/2000/svg" fill="#fdd651"><g transform="translate(-1)"><path id="Shape" d="m61 12.15c-.0175266-1.118464-.4863639-2.18236391-1.3-2.95-.4287494-.38735878-.6814547-.93248038-.7-1.51.0208707-.57811581.273085-1.12361933.7-1.514 1.1756913-1.08575214 1.5910787-2.76775649 1.056-4.276-.288465-.76404412-.8917818-1.36699653-1.656-1.655-1.5077551-.53487962-3.1891972-.11992725-4.275 1.055-.388697.43149245-.9374553.68454304-1.518.7-.5786122-.01512871-1.1253245-.26840377-1.511-.7-.7688682-.8014179-1.8314015-1.25448959-2.942-1.25448959s-2.1731318.45307169-2.942 1.25448959c-.38674.43494005-.9409857.68377882-1.523.68377882s-1.13626-.24883877-1.523-.68377882c-.7685821-.80194068-1.8312222-1.25537928-2.942-1.25537928s-2.1734179.4534386-2.942 1.25537928c-.3845659.43507467-.9373272.68422804-1.518.68422804s-1.1334341-.24915337-1.518-.68422804c-.7685821-.80194068-1.8312222-1.25537928-2.942-1.25537928s-2.1734179.4534386-2.942 1.25537928c-.3845659.43507467-.9373272.68422804-1.518.68422804s-1.1334341-.24915337-1.518-.68422804c-.7685821-.80194068-1.8312222-1.25537928-2.942-1.25537928s-2.1734179.4534386-2.942 1.25537928c-.3871862.43271355-.9403502.68002976-1.521.68002976s-1.1338138-.24731621-1.521-.68002976c-.768493-.80808985-1.834836-1.26555155-2.95-1.26555155s-2.181507.4574617-2.95 1.26555155c-.3859521.42940418-.93613792.67465344-1.5135.67465344s-1.1275479-.24524926-1.5135-.67465344c-1.08475165-1.17517446-2.76523676-1.59126462-4.273-1.058-.76606479.2905118-1.37033387.89623783-1.659 1.663-.53169515 1.50708517-.11530393 3.18601858 1.059 4.27.43352876.39014046.68680448.9419197.7 1.525-.01512871.57861217-.26840377 1.12532447-.7 1.511-.82691486.75466356-1.29805587 1.8224888-1.29805587 2.942s.47114101 2.1873364 1.29805587 2.942c.43073038.3921925.68342411.9427038.7 1.525-.02036821.5793871-.27257676 1.1263194-.7 1.518-.82691486.7546636-1.29805587 1.8224888-1.29805587 2.942s.47114101 2.1873364 1.29805587 2.942c.4298626.3898952.68257349.9379169.7 1.518-.02036821.5793871-.27257676 1.1263194-.7 1.518-.82691486.7546636-1.29805587 1.8224888-1.29805587 2.942s.47114101 2.1873364 1.29805587 2.942c.42742324.3916806.67963179.9386129.7 1.518-.01742651.5800831-.2701374 1.1281048-.7 1.518-.82691486.7546636-1.29805587 1.8224888-1.29805587 2.942s.47114101 2.1873364 1.29805587 2.942c.42742324.3916806.67963179.9386129.7 1.518-.01711796.5807308-.26983518 1.1294882-.7 1.52-.83194485.7551352-1.30635999 1.8264514-1.30635999 2.95s.47441514 2.1948648 1.30635999 2.95c.42874937.3873588.68145474.9324804.7 1.51-.0208707.5781158-.27308501 1.1236193-.7 1.514-1.10036023 1.0138701-1.54287679 2.5570839-1.147 4 .2798351 1.041387 1.10127905 1.8498226 2.147 2.113.24692583.0570228.49957611.0855424.753.085 1.12677494-.0465854 2.20135832-.4876035 3.036-1.246.40268938-.4251696.95827111-.6722477 1.54369783-.6865126.58542672-.014265 1.15238295.2054604 1.57530217.6105126.7690111.8011568 1.831491 1.2540453 2.942 1.2540453s2.1729889-.4528885 2.942-1.2540453c.3865705-.4352333.940879-.6842842 1.523-.6842842s1.1364295.2490509 1.523.6842842c.7685821.8019407 1.8312222 1.2553793 2.942 1.2553793s2.1734179-.4534386 2.942-1.2553793c.3847371-.4347793.937435-.6837186 1.518-.6837186s1.1332629.2489393 1.518.6837186c.7685821.8019407 1.8312222 1.2553793 2.942 1.2553793s2.1734179-.4534386 2.942-1.2553793c.3847371-.4347793.937435-.6837186 1.518-.6837186s1.1332629.2489393 1.518.6837186c.7685821.8019407 1.8312222 1.2553793 2.942 1.2553793s2.1734179-.4534386 2.942-1.2553793c.3867912-.4319462.9391854-.6787941 1.519-.6787941s1.1322088.2468479 1.519.6787941c.7687842.8075608 1.8350185 1.2646501 2.95 1.2646501s2.1812158-.4570893 2.95-1.2646501c.3859521-.4294042.9361379-.6746534 1.5135-.6746534s1.1275479.2452492 1.5135.6746534c1.0847516 1.1751745 2.7652368 1.5912646 4.273 1.058.7650386-.2894003 1.3691385-.893136 1.659-1.658.5314518-1.5072821.1146591-3.186249-1.06-4.27-.4418855-.3799452-.6960722-.9337297-.6960722-1.5165s.2541867-1.1365548.6960722-1.5165c.8269149-.7546636 1.2980559-1.8224888 1.2980559-2.942s-.471141-2.1873364-1.2980559-2.942c-.4464396-.3799954-.7036702-.9367366-.7036702-1.523s.2572306-1.1430046.7036702-1.523c.8269149-.7546636 1.2980559-1.8224888 1.2980559-2.942s-.471141-2.1873364-1.2980559-2.942c-.4307253-.3912606-.6831791-.9413138-.699-1.523.0203682-.5793871.2725768-1.1263194.7-1.518.8269149-.7546636 1.2980559-1.8224888 1.2980559-2.942s-.471141-2.1873364-1.2980559-2.942c-.4274232-.3916806-.6796318-.9386129-.7-1.518.0174265-.5800831.2701374-1.1281048.7-1.518.8269149-.7546636 1.2980559-1.8224888 1.2980559-2.942s-.471141-2.1873364-1.2980559-2.942c-.4274232-.3916806-.6796318-.9386129-.7-1.518.0165793-.5814322.2693423-1.1310112.7-1.522.8174599-.7640981 1.2871045-1.8291075 1.3-2.948zm-2.7 1.517c-.8274295.7576979-1.2986115 1.8280616-1.2986115 2.95s.471182 2.1923021 1.2986115 2.95c.4290126.3884234.6816879.9345631.7 1.513-.0203682.5793871-.2725768 1.1263194-.7 1.518-.8269149.7546636-1.2980559 1.8224888-1.2980559 2.942s.471141 2.1873364 1.2980559 2.942c.4454228.3784804.7021395.9334926.7021395 1.518s-.2567167 1.1395196-.7021395 1.518c-.8269149.7546636-1.2980559 1.8224888-1.2980559 2.942s.471141 2.1873364 1.2980559 2.942c.4274232.3916806.6796318.9386129.7 1.518-.0174265.5800831-.2701374 1.1281048-.7 1.518-.8266596.758539-1.2967534 1.8293821-1.2956125 2.9513206.001141 1.1219386.4734118 2.1918233 1.3016125 2.9486794.4271144.3888052.6776559.9346534.694 1.512-.0211776.5774668-.2733853 1.1222355-.7 1.512-.8284876.7556432-1.3005697 1.8251667-1.3005697 2.9465s.4720821 2.1908568 1.3005697 2.9465c.6152594.5285903.8458878 1.378983.582 2.146-.084779.2215733-.2596033.396761-.481.482-.7688564.2632609-1.6205278.0315271-2.15-.585-.7688682-.8014179-1.8314015-1.2544896-2.942-1.2544896s-2.1731318.4530717-2.942 1.2544896c-.3855731.4329714-.9377321.6806238-1.5175.6806238s-1.1319269-.2476524-1.5175-.6806238c-.7705024-.8025564-1.8349486-1.2562227-2.9475-1.2562227s-2.1769976.4536663-2.9475 1.2562227c-.3845659.4350747-.9373272.684228-1.518.684228s-1.1334341-.2491533-1.518-.684228c-.7685821-.8019407-1.8312222-1.2553793-2.942-1.2553793s-2.1734179.4534386-2.942 1.2553793c-.3860922.4324341-.9382877.6796768-1.518.6796768s-1.1319078-.2472427-1.518-.6796768c-.7685821-.8019407-1.8312222-1.2553793-2.942-1.2553793s-2.1734179.4534386-2.942 1.2553793c-.3843821.4350297-.9369826.6841724-1.5175.6841724s-1.1331179-.2491427-1.5175-.6841724c-.7711917-.8038833-1.8372956-1.2578541-2.9512811-1.2567212-1.1139854.0011329-2.1791639.4572711-2.9487189 1.2627212-.3862303.4278243-.9356256.672-1.512.672s-1.1257697-.2441757-1.512-.672c-1.582-1.631-3.862-1.662-5.809-.08-.54207009.5543572-1.30485427.8353057-2.077.765-.33788203-.1006353-.59588898-.3746722-.676-.718-.19183872-.7368807.04984311-1.5188609.624-2.019.81223337-.7653074 1.28100714-1.8261785 1.3-2.942-.01452506-1.1167997-.48403526-2.1793374-1.3-2.942-.42742324-.3916806-.67963179-.9386129-.7-1.518.01689002-.5799218.26971664-1.1278332.7-1.517.81361694-.7688942 1.28237129-1.8336877 1.3-2.953-.01899286-1.1158215-.48776663-2.1766926-1.3-2.942-.4298626-.3898952-.68257349-.9379169-.7-1.518.01983765-.5800891.27209071-1.1278386.7-1.52.81174099-.7648256 1.28047103-1.8248766 1.3-2.94-.01899286-1.1158215-.48776663-2.1766926-1.3-2.942-.44542279-.3784804-.70213954-.9334926-.70213954-1.518s.25671675-1.1395196.70213954-1.518c.81223337-.7653074 1.28100714-1.8261785 1.3-2.942-.01952897-1.1151234-.48825901-2.1751744-1.3-2.94-.42790929-.3921614-.68016235-.9399109-.7-1.52.01723596-.5798405.270003-1.1276228.7-1.517.81210101-.765816 1.28082239-1.8269291 1.3-2.943-.0165136-1.121007-.48533999-2.1877673-1.3-2.958-.4293366-.3877654-.68210778-.9337511-.7-1.512.02117763-.5774668.27338533-1.1222355.7-1.512.81496988-.7617048 1.28439069-1.82259583 1.3-2.938-.01342968-1.12080609-.48282857-2.18778588-1.3-2.955-.61520255-.52818081-.84619919-1.3780741-.583-2.145.0849906-.22235877.26064123-.3980094.483-.483.2031493-.0760027.41810346-.11560843.635-.117.57862707.01750744 1.12506672.27032155 1.513.7.76858211.80194068 1.8312222 1.25537928 2.942 1.25537928s2.1734179-.4534386 2.942-1.25537928c.3855731-.43297138.9377321-.68062376 1.5175-.68062376s1.1319269.24765238 1.5175.68062376c.7710895.8033586 1.8364633 1.25749492 2.95 1.25749492s2.1789105-.45413632 2.95-1.25749492c.3845535-.4347342.9370904-.68366258 1.5175-.68366258s1.1329465.24892838 1.5175.68366258c.7685821.80194068 1.8312222 1.25537928 2.942 1.25537928s2.1734179-.4534386 2.942-1.25537928c.3860922-.43243408.9382877-.67967679 1.518-.67967679s1.1319078.24724271 1.518.67967679c.7685821.80194068 1.8312222 1.25537928 2.942 1.25537928s2.1734179-.4534386 2.942-1.25537928c.3847371-.4347793.937435-.68371857 1.518-.68371857s1.1332629.24893927 1.518.68371857c.7711917.80388327 1.8372956 1.25785408 2.9512811 1.25672121 1.1139854-.00113287 2.1791639-.45727108 2.9487189-1.26272121.3860664-.42811098.9355225-.67249276 1.512-.67249276s1.1259336.24438178 1.512.67249276c.7597179.81619241 1.8190972 1.2877498 2.934 1.306h.008c1.1186886-.01516848 2.1831568-.48441524 2.949-1.3.5276349-.61476971 1.3773276-.84473787 2.143-.58.2189859.08399044.3920096.25701408.476.476.269492.76750344.0408506 1.62173324-.576 2.152-.8122334.76530737-1.2810071 1.82617847-1.3 2.942.0145251 1.11679974.4840353 2.17933744 1.3 2.942.4274232.3916806.6796318.9386129.7 1.518-.01689.5799218-.2697166 1.1278332-.7 1.517z"/><path id="Shape" d="m13 11c.5522847 0 1-.4477153 1-1v-2c0-.55228475-.4477153-1-1-1s-1 .44771525-1 1v2c0 .5522847.4477153 1 1 1z"/><path id="Shape" d="m15 13h2c.5522847 0 1-.4477153 1-1s-.4477153-1-1-1h-2c-.5522847 0-1 .4477153-1 1s.4477153 1 1 1z"/><path id="Shape" d="m13 17c.5522847 0 1-.4477153 1-1v-2c0-.5522847-.4477153-1-1-1s-1 .4477153-1 1v2c0 .5522847.4477153 1 1 1z"/><path id="Shape" d="m9 13h2c.5522847 0 1-.4477153 1-1s-.4477153-1-1-1h-2c-.55228475 0-1 .4477153-1 1s.44771525 1 1 1z"/><path id="Shape" d="m31 11c.5522847 0 1-.4477153 1-1v-2c0-.55228475-.4477153-1-1-1s-1 .44771525-1 1v2c0 .5522847.4477153 1 1 1z"/><path id="Shape" d="m33 13h2c.5522847 0 1-.4477153 1-1s-.4477153-1-1-1h-2c-.5522847 0-1 .4477153-1 1s.4477153 1 1 1z"/><path id="Shape" d="m31 17c.5522847 0 1-.4477153 1-1v-2c0-.5522847-.4477153-1-1-1s-1 .4477153-1 1v2c0 .5522847.4477153 1 1 1z"/><path id="Shape" d="m27 13h2c.5522847 0 1-.4477153 1-1s-.4477153-1-1-1h-2c-.5522847 0-1 .4477153-1 1s.4477153 1 1 1z"/><path id="Shape" d="m49 11c.5522847 0 1-.4477153 1-1v-2c0-.55228475-.4477153-1-1-1s-1 .44771525-1 1v2c0 .5522847.4477153 1 1 1z"/><path id="Shape" d="m53 11h-2c-.5522847 0-1 .4477153-1 1s.4477153 1 1 1h2c.5522847 0 1-.4477153 1-1s-.4477153-1-1-1z"/><path id="Shape" d="m50 14c0-.5522847-.4477153-1-1-1s-1 .4477153-1 1v2c0 .5522847.4477153 1 1 1s1-.4477153 1-1z"/><path id="Shape" d="m45 13h2c.5522847 0 1-.4477153 1-1s-.4477153-1-1-1h-2c-.5522847 0-1 .4477153-1 1s.4477153 1 1 1z"/><path id="Shape" d="m14 26c0-.5522847-.4477153-1-1-1s-1 .4477153-1 1v2c0 .5522847.4477153 1 1 1s1-.4477153 1-1z"/><path id="Shape" d="m15 31h2c.5522847 0 1-.4477153 1-1s-.4477153-1-1-1h-2c-.5522847 0-1 .4477153-1 1s.4477153 1 1 1z"/><path id="Shape" d="m14 32c0-.5522847-.4477153-1-1-1s-1 .4477153-1 1v2c0 .5522847.4477153 1 1 1s1-.4477153 1-1z"/><path id="Shape" d="m9 31h2c.5522847 0 1-.4477153 1-1s-.4477153-1-1-1h-2c-.55228475 0-1 .4477153-1 1s.44771525 1 1 1z"/><path id="Shape" d="m32 26c0-.5522847-.4477153-1-1-1s-1 .4477153-1 1v2c0 .5522847.4477153 1 1 1s1-.4477153 1-1z"/><path id="Shape" d="m33 31h2c.5522847 0 1-.4477153 1-1s-.4477153-1-1-1h-2c-.5522847 0-1 .4477153-1 1s.4477153 1 1 1z"/><path id="Shape" d="m32 32c0-.5522847-.4477153-1-1-1s-1 .4477153-1 1v2c0 .5522847.4477153 1 1 1s1-.4477153 1-1z"/><path id="Shape" d="m29 29h-2c-.5522847 0-1 .4477153-1 1s.4477153 1 1 1h2c.5522847 0 1-.4477153 1-1s-.4477153-1-1-1z"/><path id="Shape" d="m50 26c0-.5522847-.4477153-1-1-1s-1 .4477153-1 1v2c0 .5522847.4477153 1 1 1s1-.4477153 1-1z"/><path id="Shape" d="m53 29h-2c-.5522847 0-1 .4477153-1 1s.4477153 1 1 1h2c.5522847 0 1-.4477153 1-1s-.4477153-1-1-1z"/><path id="Shape" d="m50 32c0-.5522847-.4477153-1-1-1s-1 .4477153-1 1v2c0 .5522847.4477153 1 1 1s1-.4477153 1-1z"/><path id="Shape" d="m47 29h-2c-.5522847 0-1 .4477153-1 1s.4477153 1 1 1h2c.5522847 0 1-.4477153 1-1s-.4477153-1-1-1z"/><path id="Shape" d="m13 43c-.5522847 0-1 .4477153-1 1v2c0 .5522847.4477153 1 1 1s1-.4477153 1-1v-2c0-.5522847-.4477153-1-1-1z"/><path id="Shape" d="m17 47h-2c-.5522847 0-1 .4477153-1 1s.4477153 1 1 1h2c.5522847 0 1-.4477153 1-1s-.4477153-1-1-1z"/><path id="Shape" d="m13 49c-.5522847 0-1 .4477153-1 1v2c0 .5522847.4477153 1 1 1s1-.4477153 1-1v-2c0-.5522847-.4477153-1-1-1z"/><path id="Shape" d="m11 47h-2c-.55228475 0-1 .4477153-1 1s.44771525 1 1 1h2c.5522847 0 1-.4477153 1-1s-.4477153-1-1-1z"/><path id="Shape" d="m31 47c.5522847 0 1-.4477153 1-1v-2c0-.5522847-.4477153-1-1-1s-1 .4477153-1 1v2c0 .5522847.4477153 1 1 1z"/><path id="Shape" d="m35 47h-2c-.5522847 0-1 .4477153-1 1s.4477153 1 1 1h2c.5522847 0 1-.4477153 1-1s-.4477153-1-1-1z"/><path id="Shape" d="m31 49c-.5522847 0-1 .4477153-1 1v2c0 .5522847.4477153 1 1 1s1-.4477153 1-1v-2c0-.5522847-.4477153-1-1-1z"/><path id="Shape" d="m29 47h-2c-.5522847 0-1 .4477153-1 1s.4477153 1 1 1h2c.5522847 0 1-.4477153 1-1s-.4477153-1-1-1z"/><path id="Shape" d="m22 34c-.5522847 0-1 .4477153-1 1v2c0 .5522847.4477153 1 1 1s1-.4477153 1-1v-2c0-.5522847-.4477153-1-1-1z"/><path id="Shape" d="m27 39c0-.5522847-.4477153-1-1-1h-2c-.5522847 0-1 .4477153-1 1s.4477153 1 1 1h2c.5522847 0 1-.4477153 1-1z"/><path id="Shape" d="m22 40c-.5522847 0-1 .4477153-1 1v2c0 .5522847.4477153 1 1 1s1-.4477153 1-1v-2c0-.5522847-.4477153-1-1-1z"/><path id="Shape" d="m20 38h-2c-.5522847 0-1 .4477153-1 1s.4477153 1 1 1h2c.5522847 0 1-.4477153 1-1s-.4477153-1-1-1z"/><path id="Shape" d="m40 34c-.5522847 0-1 .4477153-1 1v2c0 .5522847.4477153 1 1 1s1-.4477153 1-1v-2c0-.5522847-.4477153-1-1-1z"/><path id="Shape" d="m45 39c0-.5522847-.4477153-1-1-1h-2c-.5522847 0-1 .4477153-1 1s.4477153 1 1 1h2c.5522847 0 1-.4477153 1-1z"/><path id="Shape" d="m40 40c-.5522847 0-1 .4477153-1 1v2c0 .5522847.4477153 1 1 1s1-.4477153 1-1v-2c0-.5522847-.4477153-1-1-1z"/><path id="Shape" d="m38 38h-2c-.5522847 0-1 .4477153-1 1s.4477153 1 1 1h2c.5522847 0 1-.4477153 1-1s-.4477153-1-1-1z"/><path id="Shape" d="m22 20c.5522847 0 1-.4477153 1-1v-2c0-.5522847-.4477153-1-1-1s-1 .4477153-1 1v2c0 .5522847.4477153 1 1 1z"/><path id="Shape" d="m24 22h2c.5522847 0 1-.4477153 1-1s-.4477153-1-1-1h-2c-.5522847 0-1 .4477153-1 1s.4477153 1 1 1z"/><path id="Shape" d="m23 23c0-.5522847-.4477153-1-1-1s-1 .4477153-1 1v2c0 .5522847.4477153 1 1 1s1-.4477153 1-1z"/><path id="Shape" d="m17 21c0 .5522847.4477153 1 1 1h2c.5522847 0 1-.4477153 1-1s-.4477153-1-1-1h-2c-.5522847 0-1 .4477153-1 1z"/><path id="Shape" d="m40 20c.5522847 0 1-.4477153 1-1v-2c0-.5522847-.4477153-1-1-1s-1 .4477153-1 1v2c0 .5522847.4477153 1 1 1z"/><path id="Shape" d="m42 22h2c.5522847 0 1-.4477153 1-1s-.4477153-1-1-1h-2c-.5522847 0-1 .4477153-1 1s.4477153 1 1 1z"/><path id="Shape" d="m41 23c0-.5522847-.4477153-1-1-1s-1 .4477153-1 1v2c0 .5522847.4477153 1 1 1s1-.4477153 1-1z"/><path id="Shape" d="m35 21c0 .5522847.4477153 1 1 1h2c.5522847 0 1-.4477153 1-1s-.4477153-1-1-1h-2c-.5522847 0-1 .4477153-1 1z"/><path id="Shape" d="m49 47c.5522847 0 1-.4477153 1-1v-2c0-.5522847-.4477153-1-1-1s-1 .4477153-1 1v2c0 .5522847.4477153 1 1 1z"/><path id="Shape" d="m53 47h-2c-.5522847 0-1 .4477153-1 1s.4477153 1 1 1h2c.5522847 0 1-.4477153 1-1s-.4477153-1-1-1z"/><path id="Shape" d="m49 49c-.5522847 0-1 .4477153-1 1v2c0 .5522847.4477153 1 1 1s1-.4477153 1-1v-2c0-.5522847-.4477153-1-1-1z"/><path id="Shape" d="m47 47h-2c-.5522847 0-1 .4477153-1 1s.4477153 1 1 1h2c.5522847 0 1-.4477153 1-1s-.4477153-1-1-1z"/></g></svg>