<?xml version="1.0"?>
<svg id="Capa_1" enable-background="new 0 0 512 512" height="512" viewBox="0 0 512 512" width="512" xmlns="http://www.w3.org/2000/svg" fill="#fdd651"><g><path d="m196 260c5.523 0 10-4.478 10-10v-60c0-5.522-4.477-10-10-10s-10 4.478-10 10v60c0 5.522 4.477 10 10 10z"/><path d="m316 180c-5.522 0-10 4.478-10 10v60c0 5.522 4.478 10 10 10s10-4.478 10-10v-60c0-5.522-4.478-10-10-10z"/><path d="m36 250v222c0 5.522 4.477 10 10 10h50v20c0 5.522 4.477 10 10 10h300c5.522 0 10-4.478 10-10v-20h50c5.522 0 10-4.478 10-10v-222c0-69.924-23.806-136.324-90.895-154.938.589-3.33.895-6.69.895-10.062 0-23.606-14.152-45.452-39.849-61.513-24.234-15.145-56.251-23.487-90.151-23.487-33.901 0-65.917 8.342-90.151 23.487-25.697 16.061-39.849 37.907-39.849 61.513 0 3.378.307 6.743.897 10.079-66.984 18.64-90.897 85.08-90.897 154.921zm20 212v-40h40v40zm175.838-355.119c-16.02-11.518-25.838-19.462-25.838-36.881 0-27.57 22.43-50 50-50s50 22.43 50 50c0 17.42-9.818 25.363-25.838 36.881-8.147 5.858-17.358 12.486-24.162 21.758-6.804-9.272-16.015-15.9-24.162-21.758zm104.162 385.119h-70v-100h42.715c4.085 20.562 13.403 39.035 27.285 54.027zm-90 0h-70v-45.973c13.882-14.992 23.2-33.466 27.286-54.027h42.714zm170-30v-40h40v40zm-50-377c0 17.235-11.783 31.539-25.779 41.449-4.507 3.191-5.573 9.433-2.382 13.94 3.202 4.521 9.444 5.564 13.94 2.382 9.845-6.972 17.665-14.817 23.363-23.393 12.897 9.293 20.858 24.413 20.858 40.622v70.998c0 5.522 4.478 10 10 10s10-4.478 10-10v-70.998c0-11.512-2.876-22.627-8.058-32.488 40.947 28.672 48.058 86.127 48.058 122.488v152h-40v-81.001c0-5.522-4.478-10-10-10s-10 4.478-10 10v171.001h-40v-50c0-2.652-1.054-5.195-2.929-7.071-14.357-14.357-23.319-33.083-25.916-54.152-.617-5.012-4.875-8.776-9.925-8.776h-51.23v-212.001c0-17.42 9.818-25.363 25.838-36.881 15.22-10.943 34.162-24.562 34.162-53.119 0-15.037-4.782-28.969-12.883-40.391 8.101 2.972 15.642 6.593 22.433 10.838 19.637 12.273 30.45 28.095 30.45 44.553zm-189.551-44.553c6.792-4.245 14.333-7.866 22.434-10.838-8.101 11.422-12.883 25.354-12.883 40.391 0 28.557 18.942 42.176 34.162 53.119 16.02 11.518 25.838 19.462 25.838 36.881v212h-51.23c-5.05 0-9.307 3.765-9.925 8.776-2.597 21.069-11.559 39.795-25.917 54.152-1.874 1.877-2.928 4.42-2.928 7.072v50h-40v-332c0-16.211 7.962-31.331 20.861-40.623 5.704 8.586 13.521 16.426 23.36 23.395 4.507 3.19 10.748 2.124 13.94-2.382 3.191-4.507 2.125-10.748-2.382-13.94-14.034-9.939-25.779-24.245-25.779-41.45 0-16.458 10.813-32.28 30.449-44.553zm-72.417 87.114c-5.165 9.849-8.032 20.946-8.032 32.439v242h-40v-152c0-36.333 7.108-93.745 48.032-122.439z"/><circle cx="406" cy="275.999" r="10"/></g></svg>