<?xml version="1.0"?>
<svg xmlns="http://www.w3.org/2000/svg" id="Outline" viewBox="0 0 512 512" width="512" height="512" fill="#fdd651"><path d="M367.919,22.869A8,8,0,0,0,360,16H152a8,8,0,0,0-7.919,6.869C143.84,24.554,120,192.536,120,288V488a8,8,0,0,0,8,8h96a8,8,0,0,0,7.986-7.53C232.066,487.107,240,351.592,240,296c0-33.729,9.1-73.979,16-99.629,6.9,25.639,16,65.871,16,99.629,0,55.592,7.934,191.107,8.014,192.47A8,8,0,0,0,288,496h96a8,8,0,0,0,8-8V288C392,192.536,368.16,24.554,367.919,22.869ZM363.027,112H358.9a27.043,27.043,0,0,1-26.792-23.653L329.063,64h28.185C358.974,77.586,360.981,94,363.027,112Zm-7.846-64H312V32h41.035C353.567,35.885,354.3,41.322,355.181,48ZM264,64h16v56a8.009,8.009,0,0,1-8,8h-8Zm0-32h32V48H264ZM248,48H216V32h32ZM200,32V48H156.82c.878-6.678,1.613-12.115,2.145-16ZM180.936,80h-28.18c.695-5.669,1.364-11.027,2-16h28.185Zm-3.187,16A27.053,27.053,0,0,1,153.1,112h-4.127c.625-5.494,1.245-10.839,1.856-16ZM224,296c0,47.574-5.889,154.681-7.554,184H136V288c0-45.37,5.479-107.519,11.192-160H153.1a43.068,43.068,0,0,0,42.668-37.667L199.062,64H248V166.721C244.7,176.882,224,242.735,224,296ZM376,480H295.554C293.889,450.681,288,343.574,288,296c0-53.265-20.7-119.118-24-129.279V144h8a24.027,24.027,0,0,0,24-24V64h16.938l3.294,26.332A43.068,43.068,0,0,0,358.9,128h5.908C370.522,180.478,376,242.625,376,288Z"/></svg>
