<?xml version="1.0"?>
<svg xmlns="http://www.w3.org/2000/svg" id="OutLine" viewBox="0 0 512 512" width="512" height="512" fill="#fdd651"><path d="M208,16a8,8,0,0,0-8,8V52.686L170.343,82.343a8,8,0,0,0-2.31,6.382c.083.912,2.078,22.609,6.1,44.706,4.465,24.553,9.379,39.169,15.826,45.959C183.536,195.43,168,237.037,168,264V488a8,8,0,0,0,8,8h64a8,8,0,0,0,7.979-7.43L256,376.285l8.021,112.285A8,8,0,0,0,272,496h64a8,8,0,0,0,8-8V264c0-26.963-15.536-68.57-21.955-84.61,6.447-6.79,11.361-21.406,15.826-45.959,4.018-22.1,6.013-43.794,6.1-44.706a8,8,0,0,0-2.31-6.382L312,52.686V24a8,8,0,0,0-16,0V50.233L256,63.567,216,50.233V24A8,8,0,0,0,208,16ZM328,264V480H279.449l-15.47-216.57a8,8,0,0,0-15.958,0L232.551,480H184V264c0-24.12,14.967-64,20.937-78.948,7.96,1.445,21.87,3.868,33.871,5.437l-6.7,40.2h.009a7.992,7.992,0,1,0,15.766,2.628h.009l6.888-41.332c.423.01.833.017,1.22.017s.8-.007,1.22-.017l6.888,41.332h.009a7.992,7.992,0,1,0,15.766-2.628h.009l-6.7-40.2c12-1.569,25.911-3.992,33.871-5.437C313.033,200,328,239.88,328,264ZM258.53,79.59l43.309-14.437,25.825,25.826c-.673,6.466-2.267,20.528-4.755,35.154-5.571,32.745-10.855,40.462-12.218,41.974-.065.011-.127.03-.192.043v-.007C299.062,170.328,266.98,176,256,176s-43.061-5.672-54.5-7.857v.007c-.065-.013-.127-.032-.192-.043-1.362-1.511-6.638-9.216-12.2-41.886-2.493-14.64-4.093-28.758-4.769-35.243l25.825-25.825L253.47,79.59A8.006,8.006,0,0,0,258.53,79.59Z"/></svg>
