<svg id="Capa_1" enable-background="new 0 0 512 512" height="512" viewBox="0 0 512 512" width="512" xmlns="http://www.w3.org/2000/svg" fill="#fdd651"><path d="m256 342.96c-4.113 0-7.892-2.624-9.347-6.464-1.495-3.943-.284-8.555 2.976-11.241 3.136-2.583 7.621-3.004 11.183-1.054 3.696 2.024 5.771 6.327 5.034 10.48-.837 4.721-5.039 8.279-9.846 8.279z"/><path d="m411.341 0h-310.682c-38.12 0-69.133 30.851-69.133 68.771v272.178c0 21.244 17.284 38.527 38.528 38.527h27.871v122.524c0 5.522 4.478 10 10 10h296.148c5.523 0 10-4.478 10-10v-122.524h27.871c21.244 0 38.528-17.283 38.528-38.527v-272.178c.002-37.92-31.011-68.771-69.131-68.771zm-78.357 112.682 16.271 14.909-76.067 69.898 46.427-177.489h4.306l37.549 45.666-29.218 33.016c-3.615 4.085-3.29 10.313.732 14zm-76.984 71.482-42.941-164.164h85.882zm-63.615-164.164 46.427 177.489-76.067-69.898 16.27-14.909c4.023-3.687 4.348-9.915.732-14l-29.217-33.016 37.549-45.666zm-122.33 339.476c-10.217 0-18.528-8.311-18.528-18.527v-65.449h46.399v83.976zm47.871-50.476h66.377v85.639c0 14.304-11.638 25.941-25.941 25.941h-40.436zm148.074 183v-114.015c0-5.523-4.478-10-10-10-5.523 0-10 4.477-10 10v114.015h-128.074v-51.42h40.436c25.332 0 45.941-20.609 45.941-45.941v-95.639c0-5.522-4.478-10-10-10h-76.377v-128.27c0-5.523-4.478-10-10-10s-10 4.477-10 10v94.77h-46.4v-186.729c0-26.893 22.041-48.771 49.133-48.771h61.527l-32.523 39.553c-3.121 3.797-3.021 9.299.236 12.979l28.358 32.045-17.059 15.632c-2.065 1.893-3.242 4.565-3.244 7.366s1.171 5.475 3.233 7.37l104.813 96.31v56.318c0 5.522 4.477 10 10 10 5.522 0 10-4.478 10-10v-56.318l104.811-96.311c2.063-1.896 3.235-4.569 3.233-7.37s-1.179-5.474-3.244-7.366l-17.059-15.632 28.358-32.045c3.258-3.68 3.357-9.182.236-12.979l-32.521-39.552h61.527c27.092 0 49.133 21.878 49.133 48.771v186.729h-46.399v-94.77c0-5.523-4.477-10-10-10-5.522 0-10 4.477-10 10v128.27h-76.377c-5.522 0-10 4.478-10 10v95.639c0 25.332 20.609 45.941 45.941 45.941h40.435v51.42zm128.074-71.42h-40.435c-14.304 0-25.941-11.638-25.941-25.941v-85.639h66.377v111.58zm66.4-79.632c0 10.216-8.311 18.527-18.528 18.527h-27.871v-83.975h46.399z"/></svg>