<svg id="Layer_3" enable-background="new 0 0 64 64" height="512" viewBox="0 0 64 64" width="512" xmlns="http://www.w3.org/2000/svg" fill="#fdd651"><g><path d="m50.059 3.741-8.765-2.697c-.095-.029-.194-.044-.294-.044h-18c-.1 0-.199.015-.294.044l-8.765 2.697c-2.956.909-4.941 3.598-4.941 6.691v35.568c0 .552.447 1 1 1h7v15c0 .552.447 1 1 1h28c.553 0 1-.448 1-1v-15h7c.553 0 1-.448 1-1v-35.568c0-3.093-1.985-5.782-4.941-6.691zm-13.455 1.24-.262.262c-1.132 1.133-2.639 1.757-4.241 1.757h-.201c-1.603 0-3.109-.624-4.242-1.758l-.262-.261-.867-1.981h10.942zm-1.503 3.437-3.101 7.087-3.101-7.087c.941.38 1.955.582 3 .582h.201c1.046 0 2.06-.202 3.001-.582zm-11.951-5.418h1.196l6.738 15.401c.159.364.519.599.916.599s.757-.235.916-.599l6.738-15.401h1.196l1.065.328-1.799 8.997-3.562 1.781c-.257.128-.445.361-.52.638-.073.277-.024.573.135.812l1.639 2.458-5.808 9.123-5.807-9.125 1.639-2.458c.159-.239.208-.534.135-.812-.074-.277-.263-.509-.52-.638l-3.562-1.781-1.799-8.997zm-6.15 16v26h-6v-34.568c0-2.209 1.418-4.13 3.529-4.779l5.635-1.734 1.856 9.278c.061.302.257.56.533.698l2.987 1.493-1.372 2.058c-.22.33-.225.757-.012 1.092l6.844 10.754v31.708h-12v-42zm36 26h-6v-26h-2v42h-12v-31.708l6.844-10.754c.213-.334.208-.762-.012-1.092l-1.372-2.058 2.987-1.493c.276-.138.473-.396.533-.698l1.856-9.278 5.635 1.734c2.111.649 3.529 2.57 3.529 4.779z"/><path d="m21 28h8v2h-8z"/><path d="m35 43h8v2h-8z"/><path d="m21 43h8v2h-8z"/></g></svg>