<?xml version="1.0"?>
<svg xmlns="http://www.w3.org/2000/svg" id="outline" viewBox="0 0 512 512" width="512" height="512" fill="#fdd651"><circle cx="256" cy="328" r="8"/><circle cx="160" cy="240" r="8"/><path d="M104.07324,489.08105A8.00006,8.00006,0,0,0,112,496H400a8.00006,8.00006,0,0,0,7.92676-6.91895l48-352A7.99969,7.99969,0,0,0,448,128h-8V104a64.07239,64.07239,0,0,0-64-64H296a23.85629,23.85629,0,0,0-10.39429,2.36963A40.06752,40.06752,0,0,0,248,16H168a48.054,48.054,0,0,0-48,48h-8a40.04552,40.04552,0,0,0-40,40v24H64a7.99969,7.99969,0,0,0-7.92676,9.08105ZM393.0166,480H118.9834L73.165,144H99.96L112.04,264.7959A7.99881,7.99881,0,0,0,120,272h32v24a8.00008,8.00008,0,0,0,8,8h64v56a8.00008,8.00008,0,0,0,8,8h48v24a8.00008,8.00008,0,0,0,8,8h80a8.00031,8.00031,0,0,0,7.91992-6.86865L411.50977,144H438.835ZM113.71875,120.79688A8.00091,8.00091,0,0,1,121.67969,112H168a8.00917,8.00917,0,0,1,8,8v72H120.8396ZM192,264V144h32V288H168V272h16A8.00008,8.00008,0,0,0,192,264ZM240,96a8.00917,8.00917,0,0,1,8-8h56a8.00917,8.00917,0,0,1,8,8v8h-8a24.02718,24.02718,0,0,0-24,24V280H240Zm0,200h40v56H240Zm56,56h69.63281l-4.57129,32H296Zm71.91846-16H296V128a8.00917,8.00917,0,0,1,8-8h85.55176a7.9999,7.9999,0,0,1,7.91894,9.13135ZM127.24023,256l-4.80029-48H176v48ZM296,56h80a48.054,48.054,0,0,1,48,48v24H413.54419a23.98573,23.98573,0,0,0-23.99243-24H328V96a24.02718,24.02718,0,0,0-24-24H288V64A8.00917,8.00917,0,0,1,296,56ZM168,32h80a24.02718,24.02718,0,0,1,24,24V72H248a23.84446,23.84446,0,0,0-11.77734,3.10059A23.99661,23.99661,0,0,0,216,64H136A32.03635,32.03635,0,0,1,168,32ZM88,104a24.02718,24.02718,0,0,1,24-24H216a8.00917,8.00917,0,0,1,8,8v40H192v-8a24.0275,24.0275,0,0,0-24-24H121.67969a24.00085,24.00085,0,0,0-23.88086,26.38818L98.36011,128H88Z"/></svg>
