<svg height="512pt" viewBox="-125 0 512 512" width="512pt" xmlns="http://www.w3.org/2000/svg" fill="#fdd651"><path d="m76.449219 154.875c0 3.917969-3.175781 7.09375-7.09375 7.09375s-7.09375-3.175781-7.09375-7.09375 3.175781-7.097656 7.09375-7.097656 7.09375 3.179687 7.09375 7.097656zm0 0"/><path d="m194.023438 154.875c0 3.917969-3.175782 7.09375-7.09375 7.09375-3.917969 0-7.09375-3.175781-7.09375-7.09375s3.175781-7.097656 7.09375-7.097656c3.917968 0 7.09375 3.179687 7.09375 7.097656zm0 0"/><path d="m261.734375 264.585938-43.609375-139.304688c-.09375-.289062-.214844-.558594-.335938-.832031v-116.941407c0-4.148437-3.363281-7.507812-7.507812-7.507812h-34.925781c-4.144531 0-7.503907 3.359375-7.503907 7.507812v112.507813h-74.832031v-112.507813c0-4.148437-3.359375-7.507812-7.507812-7.507812h-34.921875c-4.148438 0-7.507813 3.359375-7.507813 7.507812v118.882813l-42.746093 138.222656c-.222657.71875-.335938 1.464844-.335938 2.214844v64.78125c0 4.144531 3.359375 7.507813 7.507812 7.507813 4.144532 0 7.503907-3.363282 7.503907-7.507813v-54.636719h30.710937c4.148438 0 7.507813-3.359375 7.507813-7.507812 0-4.144532-3.359375-7.503906-7.507813-7.503906h-28.851562l39.253906-126.929688h149.320312l39.734376 126.929688h-25.847657c-4.144531 0-7.503906 3.359374-7.503906 7.503906 0 4.148437 3.359375 7.507812 7.503906 7.507812h27.734375v220.015625h-76.894531l-31.839844-130.277343c-.824219-3.359376-3.835937-5.722657-7.292969-5.722657-3.460937 0-6.472656 2.363281-7.292968 5.722657l-31.84375 130.277343h-76.890625v-135.355469c0-4.144531-3.359375-7.503906-7.503907-7.503906-4.148437 0-7.507812 3.359375-7.507812 7.503906v142.859376c0 4.148437 3.359375 7.507812 7.507812 7.507812h90.289063c3.457031 0 6.46875-2.363281 7.292969-5.722656l25.949218-106.171875 25.949219 106.171875c.824219 3.359375 3.835938 5.722656 7.292969 5.722656h90.289062c4.148438 0 7.507813-3.359375 7.507813-7.507812v-237.664063c-.003906-.757813-.117187-1.515625-.34375-2.242187zm-203.640625-144.570313v-105.003906h19.914062v105.003906zm124.769531 0v-105.003906h19.910157v105.003906zm0 0"/><path d="m97.21875 206.875c0-4.144531-3.359375-7.503906-7.503906-7.503906h-14.570313c-2.023437 0-3.964843.816406-5.378906 2.269531-1.410156 1.449219-2.179687 3.410156-2.125 5.4375.441406 16.582031 7.230469 32.105469 19.117187 43.703125 11.910157 11.621094 27.636719 18.019531 44.28125 18.019531 16.644532 0 32.367188-6.398437 44.277344-18.019531 11.886719-11.597656 18.675782-27.121094 19.117188-43.703125.054687-2.027344-.710938-3.988281-2.125-5.4375-1.414063-1.453125-3.355469-2.269531-5.378906-2.269531h-67.191407c-4.144531 0-7.507812 3.359375-7.507812 7.503906 0 4.148438 3.363281 7.507812 7.507812 7.507812h58.871094c-1.824219 9.710938-6.574219 18.625-13.777344 25.652344-9.089843 8.867188-21.089843 13.753906-33.792969 13.753906-12.707031 0-24.707031-4.886718-33.796874-13.753906-7.203126-7.027344-11.953126-15.941406-13.777344-25.652344h6.246094c4.148437 0 7.507812-3.359374 7.507812-7.507812zm0 0"/><path d="m31.367188 412.722656c-.96875 11.722656.925781 23.089844 5.335937 32.003906 5.027344 10.160157 12.742187 16.164063 21.722656 16.90625.621094.050782 1.238281.078126 1.855469.078126 8.300781 0 16.175781-4.625 22.347656-13.183594 5.816406-8.066406 9.550782-18.96875 10.523438-30.691406 2.148437-25.992188-9.734375-47.472657-27.058594-48.910157-17.316406-1.441406-32.574219 17.804688-34.726562 43.796875zm14.960937 1.238282c1.199219-14.480469 9.042969-30.097657 17.90625-30.097657.207031 0 .414063.007813.621094.027344 9.121093.753906 14.5625 17.890625 13.335937 32.707031-.738281 8.910156-3.558594 17.347656-7.742187 23.148438-3.378907 4.6875-7.300781 7.21875-10.789063 6.921875-3.472656-.285157-6.9375-3.421875-9.503906-8.601563-3.167969-6.40625-4.566406-15.195312-3.828125-24.105468zm0 0"/><path d="m168.921875 417.835938c.972656 11.722656 4.710937 22.625 10.523437 30.691406 6.171876 8.558594 14.046876 13.183594 22.347657 13.183594.617187 0 1.238281-.027344 1.859375-.078126 8.976562-.742187 16.691406-6.746093 21.71875-16.90625 4.410156-8.914062 6.304687-20.28125 5.335937-32.003906-2.152343-25.992187-17.417969-45.21875-34.726562-43.796875-17.324219 1.4375-29.207031 22.917969-27.058594 48.910157zm28.292969-33.945313c9.144531-.78125 17.304687 15.253906 18.53125 30.070313.738281 8.910156-.65625 17.699218-3.828125 24.105468-2.566407 5.179688-6.027344 8.316406-9.503907 8.605469-3.476562.289063-7.410156-2.238281-10.789062-6.925781-4.183594-5.800782-7.003906-14.234375-7.738281-23.148438-1.226563-14.816406 4.214843-31.953125 13.328125-32.707031zm0 0"/></svg>