<svg id="Capa_1" enable-background="new 0 0 512 512" height="512" viewBox="0 0 512 512" width="512" xmlns="http://www.w3.org/2000/svg" fill="#fdd651"><circle cx="256" cy="502" r="10"/><path d="m406 150c-5.522 0-10 4.478-10 10v332h-95c-5.522 0-10 4.478-10 10s4.478 10 10 10h105c5.522 0 10-4.478 10-10v-242h60c5.522 0 10-4.478 10-10v-109.73c0-45.975-31.147-85.867-75.744-97.011l-49.871-12.47-38.385-28.789c-1.661-1.245-3.806-2-6-2h-120c-2.075 0-4.242.681-6 2l-38.385 28.789-49.87 12.469c-44.597 11.144-75.745 51.036-75.745 97.012v109.73c0 5.522 4.477 10 10 10h60v242c0 5.522 4.477 10 10 10h105c5.523 0 10-4.478 10-10s-4.477-10-10-10h-95v-332c0-5.522-4.477-10-10-10s-10 4.478-10 10v80h-50v-99.73c0-36.779 24.917-68.693 60.596-77.608l42.846-10.714 27.071 81.214c1.945 5.838 8.67 8.556 14.123 5.698l46.459-24.31 8.905 17.81v57.64c0 5.522 4.478 10 10 10s10-4.478 10-10v-57.64l8.905-17.81 46.459 24.31c5.418 2.837 12.163.178 14.123-5.698l27.071-81.214 42.848 10.714c35.677 8.914 60.594 40.828 60.594 77.608v99.73h-50v-80c0-5.522-4.478-10-10-10zm-150-42.355-43.82-87.645h87.64zm-64.228 8.048-24.006-72.018 24.648-18.486 35.735 71.47zm128.456 0-36.377-19.034 35.735-71.47 24.649 18.487z"/></svg>