<svg height="480pt" viewBox="-72 0 480 480" width="480pt" xmlns="http://www.w3.org/2000/svg" fill="#fdd651"><path d="m32 472c0 4.417969 3.582031 8 8 8h256c4.417969 0 8-3.582031 8-8v-224h24c4.417969 0 8-3.582031 8-8v-184c-.035156-30.914062-25.085938-55.9648438-56-56h-48c-.652344.0429688-1.300781.121094-1.945312.238281l-25.191407 6.296875c-24.207031 6.03125-49.519531 6.03125-73.726562 0l-25.191407-6.296875c-.644531-.117187-1.292968-.1992185-1.945312-.238281h-48c-30.914062.0351562-55.9648438 25.085938-56 56v184c0 4.417969 3.582031 8 8 8h24zm16-40c0-8.835938 7.164062-16 16-16h16c8.835938 0 16 7.164062 16 16v32h-48zm112-264v-15.089844c9.476562 2.828125 15.980469 11.535156 16 21.425782v16.296874c-9.582031-3.402343-15.988281-12.464843-16-22.632812zm64 40v16h-16v-16zm-32 56v15.089844c-9.476562-2.828125-15.980469-11.535156-16-21.425782v-16.296874c9.582031 3.402343 15.988281 12.464843 16 22.632812zm0-56v16h-32v-16zm-48 16h-32v-16h32zm-32 16h48v17.664062c.035156 21.15625 17.179688 38.300782 38.335938 38.335938h1.664062c4.417969 0 8-3.582031 8-8v-24c-.03125-8.683594-2.914062-17.117188-8.207031-24h24.207031v224h-112zm176 224h-48v-32c0-8.835938 7.164062-16 16-16h16c8.835938 0 16 7.164062 16 16zm32-408v176h-16v-88h-16v260.449219c-4.84375-2.878907-10.367188-4.417969-16-4.449219v-384h8c22.082031.027344 39.972656 17.917969 40 40zm-64 344h-16v-384h16zm-47.257812-377.945312 15.257812-3.816407v173.761719h-32v-17.664062c-.035156-21.15625-17.179688-38.300782-38.335938-38.335938h-1.664062c-4.417969 0-8 3.582031-8 8v24c.03125 8.683594 2.914062 17.117188 8.207031 24h-40.207031v-173.761719l15.257812 3.816407c26.75 6.671874 54.734376 6.671874 81.484376 0zm-112.742188-6.054688v384h-16v-384zm-80 216v-176c.027344-22.082031 17.917969-39.972656 40-40h8v384c-5.632812.03125-11.15625 1.570312-16 4.449219v-260.449219h-16v88zm0 0"/></svg>