<?xml version="1.0" encoding="iso-8859-1"?>
<!-- Generator: Adobe Illustrator 19.0.0, SVG Export Plug-In . SVG Version: 6.00 Build 0)  -->
<svg version="1.1" id="Capa_1" xmlns="http://www.w3.org/2000/svg" xmlns:xlink="http://www.w3.org/1999/xlink" x="0px" y="0px"
	 viewBox="0 0 511.947 511.947" style="enable-background:new 0 0 511.947 511.947;" xml:space="preserve" fill="#fdd651">
<path d="M504.367,130.683L476.314,83.92c-17.259-28.757-48.811-46.613-82.325-46.613H117.935
	c-33.515,0-65.067,17.856-82.325,46.613L7.556,130.683c-8.661,14.464-9.984,32.384-3.413,48.128l103.381,236.117
	c1.173,2.688,3.392,4.757,6.144,5.76c2.731,1.003,5.781,0.811,8.405-0.491l85.333-42.667c5.013-2.517,7.232-8.491,5.056-13.675
	L102.938,102.523c-4.011-10.027-2.837-20.885,3.2-29.824c6.059-8.939,15.723-14.059,26.517-14.059h246.613
	c10.795,0,20.459,5.12,26.517,14.059c6.037,8.917,7.211,19.755,3.243,29.739L299.46,363.835
	c-2.176,5.184,0.043,11.157,5.056,13.675l85.333,42.667c1.515,0.747,3.136,1.131,4.779,1.131c1.237,0,2.453-0.213,3.627-0.619
	c2.752-1.003,4.971-3.093,6.144-5.76L507.866,178.64C514.351,163.088,513.05,145.147,504.367,130.683z M188.932,362.896
	l-66.368,33.195L23.748,170.427c-3.883-9.344-3.093-20.096,2.112-28.779l28.053-46.763C61.423,82.384,72.41,72.507,85.21,66.256
	c-7.019,13.653-7.872,29.76-2.027,44.352L188.932,362.896z M488.239,170.256l-98.88,225.835l-66.368-33.195L428.74,110.629
	c0.021-0.064,0.043-0.107,0.064-0.171c5.781-14.443,4.949-30.528-2.091-44.181c12.8,6.251,23.787,16.128,31.296,28.629
	l28.053,46.763C491.268,150.331,492.058,161.104,488.239,170.256z"/>
<path d="M398.148,143.973H112.943c-5.888,0-10.667,4.779-10.667,10.667s4.779,10.667,10.667,10.667h285.205
	c5.888,0,10.667-4.779,10.667-10.667S404.036,143.973,398.148,143.973z"/>
<path d="M233.882,417.36l-21.333-53.333c-2.197-5.504-8.448-8.128-13.867-5.952c-5.483,2.197-8.149,8.405-5.952,13.867
	l21.333,53.333c1.664,4.16,5.675,6.699,9.899,6.699c1.323,0,2.667-0.235,3.968-0.747
	C233.412,429.029,236.079,422.821,233.882,417.36z"/>
<path d="M191.215,438.693l-21.333-53.333c-2.197-5.504-8.448-8.128-13.867-5.952c-5.483,2.197-8.149,8.405-5.952,13.867
	l21.333,53.333c1.664,4.16,5.675,6.699,9.899,6.699c1.323,0,2.667-0.235,3.968-0.747
	C190.746,450.363,193.412,444.155,191.215,438.693z"/>
<path d="M148.548,460.027l-21.333-53.333c-2.197-5.504-8.448-8.128-13.867-5.952c-5.483,2.197-8.149,8.405-5.952,13.867
	l21.333,53.333c1.664,4.16,5.675,6.699,9.899,6.699c1.323,0,2.667-0.235,3.968-0.747
	C148.079,471.696,150.746,465.488,148.548,460.027z"/>
<path d="M313.242,358.053c-5.419-2.176-11.669,0.469-13.867,5.952l-21.333,53.333c-2.176,5.461,0.491,11.669,5.952,13.867
	c1.301,0.533,2.645,0.768,3.968,0.768c4.224,0,8.235-2.539,9.899-6.72l21.333-53.333
	C321.37,366.459,318.703,360.251,313.242,358.053z"/>
<path d="M355.908,379.387c-5.419-2.176-11.669,0.469-13.867,5.952l-21.333,53.333c-2.176,5.461,0.491,11.669,5.952,13.867
	c1.301,0.533,2.645,0.768,3.968,0.768c4.224,0,8.235-2.539,9.899-6.72l21.333-53.333
	C364.036,387.792,361.37,381.584,355.908,379.387z"/>
<path d="M398.575,400.72c-5.419-2.176-11.691,0.469-13.867,5.952l-21.333,53.333c-2.176,5.461,0.491,11.669,5.952,13.867
	c1.301,0.533,2.645,0.768,3.968,0.768c4.224,0,8.235-2.539,9.899-6.72l21.333-53.333
	C406.703,409.125,404.036,402.917,398.575,400.72z"/>
</svg>
