<?xml version="1.0" encoding="iso-8859-1"?>
<svg version="1.1" id="Capa_1" xmlns="http://www.w3.org/2000/svg" xmlns:xlink="http://www.w3.org/1999/xlink" x="0px" y="0px"
	 viewBox="0 0 512.001 512.001" style="enable-background:new 0 0 512.001 512.001;" xml:space="preserve" fill="#fdd651">
		<path d="M510.889,351.545L390,117.047V55.625c0-5.523-4.477-10-10-10H132c-5.523,0-10,4.477-10,10v61.421L1.112,351.545
			c-2.031,3.94-1.226,8.747,1.978,11.81c1.917,1.832,46.48,43.873,124.276,70.694l-0.274,0.843c-0.823,2.536-0.6,5.296,0.621,7.667
			c1.221,2.371,3.338,4.155,5.88,4.958C173.246,460.03,214.43,466.375,256,466.375s82.754-6.345,122.407-18.859
			c2.542-0.802,4.66-2.587,5.88-4.958c1.221-2.37,1.444-5.13,0.621-7.667l-0.275-0.847c77.782-26.814,122.35-68.848,124.277-70.69
			C512.115,360.292,512.92,355.485,510.889,351.545z M142,97.625h76c5.523,0,10-4.477,10-10s-4.477-10-10-10h-76v-12h228v44H142
			V97.625z M378.454,415.009l-53.774-165.64c-1.705-5.253-7.345-8.131-12.599-6.423c-5.253,1.705-8.129,7.346-6.423,12.599
			l43.981,135.476c-10.623,2.653-21.404,4.875-32.15,6.607c-20.208,3.256-40.896,4.907-61.489,4.907
			c-7.834,0-15.757-0.24-23.549-0.712c-5.532-0.343-10.253,3.863-10.587,9.376c-0.334,5.513,3.863,10.253,9.376,10.587
			c8.193,0.497,16.523,0.749,24.76,0.749c21.656,0,43.414-1.737,64.67-5.162c11.756-1.894,23.552-4.343,35.158-7.284l6.903,21.265
			c-34.714,9.972-70.569,15.021-106.732,15.021c-36.163,0-72.018-5.05-106.732-15.021l57.075-175.809
			c1.706-5.253-1.17-10.894-6.423-12.599c-5.252-1.704-10.894,1.17-12.599,6.423l-53.774,165.643
			c-58.182-20.154-97.241-49.728-111.07-61.261l55.597-107.847c0.01-0.003,0.02-0.004,0.03-0.006l52.973-15.247
			c2.674-0.77,4.906-2.618,6.16-5.102l30.242-59.885c2.49-4.93,0.511-10.944-4.418-13.434c-4.928-2.49-10.944-0.512-13.434,4.418
			l-28.275,55.99l-30.68,8.831l47.347-91.844h235.966l47.348,91.844l-30.681-8.831l-28.275-55.99
			c-2.49-4.93-8.505-6.91-13.434-4.418c-4.93,2.49-6.908,8.504-4.418,13.434l30.242,59.885c1.254,2.484,3.486,4.333,6.16,5.102
			l52.973,15.247c0.01,0.003,0.02,0.004,0.031,0.007l55.597,107.846C475.689,365.289,436.631,394.854,378.454,415.009z"/>
		<path d="M202.492,398.828l-0.053-0.007c-5.468-0.779-10.528,3.033-11.302,8.501c-0.773,5.469,3.033,10.528,8.501,11.302
			l0.244,0.034c0.441,0.058,0.879,0.086,1.313,0.086c4.933,0,9.21-3.655,9.881-8.679
			C211.806,404.598,207.956,399.571,202.492,398.828z"/>
		<path d="M263.07,80.55c-1.86-1.86-4.44-2.92-7.07-2.92s-5.21,1.06-7.07,2.92S246,84.99,246,87.62c0,2.64,1.07,5.22,2.93,7.08
			s4.44,2.92,7.07,2.92s5.21-1.06,7.07-2.92s2.93-4.44,2.93-7.08C266,84.99,264.93,82.41,263.07,80.55z"/>
</svg>
