<svg height="512" viewBox="0 0 512 512" width="512" xmlns="http://www.w3.org/2000/svg" fill="#fdd651"><g id="Outline"><path d="m495.155 172.422-55.574-111.15a47.849 47.849 0 0 0 -32.14-25.3l-85.625-19.76h-.01-.007c-.122-.028-.246-.041-.369-.063-.172-.032-.344-.07-.519-.09a8.142 8.142 0 0 0 -.911-.059h-128a8 8 0 0 0 -7.761 9.94l4.361 17.434a69.478 69.478 0 0 0 134.806 0l2.453-9.812 77.988 18a31.9 31.9 0 0 1 21.426 16.87l52.461 104.923-51.843 35.642-25.7-35.337 7.788-109.09-15.958-1.14-8 112h.025c-.014.191-.046.376-.046.569v272.001h-240v16h240v16h-256v-304c0-.193-.032-.378-.046-.569h.025l-8-112-15.958 1.14 7.791 109.087-25.7 35.337-51.843-35.643 52.461-104.923a31.9 31.9 0 0 1 21.426-16.87l61.644-14.226-3.6-15.59-61.641 14.226a47.849 47.849 0 0 0 -32.14 25.3l-55.574 111.153a8 8 0 0 0 2.623 10.171l64 44a8 8 0 0 0 11-1.888l17.532-24.105v287.4a8 8 0 0 0 8 8h272a8 8 0 0 0 8-8v-287.4l17.53 24.1a8 8 0 0 0 11 1.888l64-44a8 8 0 0 0 2.625-10.166zm-187.275-132.929a53.477 53.477 0 0 1 -103.76 0l-1.874-7.493h107.508z"/><path d="m232 48h48v16h-48z"/></g></svg>