<?xml version="1.0" encoding="iso-8859-1"?>
<svg version="1.1" id="Capa_1" xmlns="http://www.w3.org/2000/svg" xmlns:xlink="http://www.w3.org/1999/xlink" x="0px" y="0px"
	 viewBox="0 0 512 512" style="enable-background:new 0 0 512 512;" xml:space="preserve" fill="#fdd651">
		<path d="M325.99,449.076L289.236,75.153l21.407-36.283c4.758-8.07,4.824-17.745,0.177-25.879C306.172,4.856,297.802,0,288.432,0
			h-64.863c-9.371,0-17.74,4.856-22.387,12.991c-4.647,8.134-4.581,17.809,0.179,25.883l21.404,36.28L186.01,449.076
			c-0.321,3.264,0.973,6.478,3.466,8.611l60.676,51.903c1.879,1.608,4.202,2.41,6.525,2.41c2.36,0,4.719-0.829,6.611-2.484
			l59.323-51.903C325.049,455.48,326.308,452.301,325.99,449.076z M218.653,28.674c-1.516-2.572-0.532-4.859-0.039-5.723
			c0.494-0.863,1.965-2.872,4.954-2.872h64.863c2.99,0,4.459,2.009,4.954,2.872c0.493,0.863,1.477,3.15-0.037,5.719l-20.158,34.165
			h-34.383L218.653,28.674z M256.602,488.686l-50.099-42.855l35.672-362.917h27.647l35.68,362.988L256.602,488.686z"/>
		<path d="M256.366,200.249c-5.544,0-10.039,4.495-10.039,10.039v161.163c0,5.545,4.495,10.039,10.039,10.039
			c5.544,0,10.039-4.495,10.039-10.039V210.288C266.406,204.744,261.91,200.249,256.366,200.249z"/>
		<path d="M256.366,395.545c-12.919,0-12.941,20.078,0,20.078C269.286,415.624,269.307,395.545,256.366,395.545z"/>
</svg>
