<svg id="Capa_1" enable-background="new 0 0 512 512" height="512" viewBox="0 0 512 512" width="512" xmlns="http://www.w3.org/2000/svg" fill="#fdd651"><circle cx="256" cy="502" r="10"/><path d="m436 216c-27.57 0-50-22.43-50-50v-136c0-16.542-13.458-30-30-30h-20c-12.585 0-23.431 7.688-27.868 18.842-2.527 3.224-2.025 6.087-2.225 8.241-1.562 18.15-23.95 32.917-49.907 32.917s-48.345-14.767-49.913-32.981c-.198-2.133.298-4.965-2.219-8.176-4.437-11.155-15.283-18.843-27.868-18.843h-20c-16.542 0-30 13.458-30 30v136c0 27.57-22.43 50-50 50-5.523 0-10 4.478-10 10v276c0 5.522 4.477 10 10 10h135c5.523 0 10-4.478 10-10s-4.477-10-10-10h-125v-256.712c33.878-4.867 60-34.085 60-69.288v-136c0-5.514 4.486-10 10-10h20c5.513 0 10 4.417 10 10v126c0 38.624 31.248 70 70 70 38.598 0 70-31.402 70-70v-126c0-5.579 4.483-10 10-10h20c5.514 0 10 4.486 10 10v136c0 35.203 26.122 64.421 60 69.288v256.712h-125c-5.523 0-10 4.478-10 10s4.477 10 10 10h135c5.523 0 10-4.478 10-10v-276c0-5.522-4.477-10-10-10zm-180-10c-27.698 0-50-22.425-50-50v-92.418c13.737 10.969 31.858 16.418 50 16.418 18.144 0 36.263-5.449 50-16.418v92.418c0 27.57-22.43 50-50 50z"/></svg>